<svg width="611" height="345" viewBox="0 0 611 345" fill="none" xmlns="http://www.w3.org/2000/svg">
<path d="M569.281 59.9557H559.998C559.261 59.9569 558.541 59.7286 557.938 59.3024C557.336 58.8762 556.881 58.2732 556.637 57.5769C555.926 55.537 555.085 53.5445 554.12 51.6118C553.787 50.9431 553.673 50.1864 553.794 49.4491C553.916 48.7119 554.266 48.0317 554.797 47.5053L561.394 40.9077C562.065 40.2367 562.441 39.3271 562.441 38.3786C562.441 37.4302 562.065 36.5206 561.394 35.8496L547.14 21.6023C546.47 20.9319 545.56 20.5553 544.612 20.5553C543.663 20.5553 542.754 20.9319 542.083 21.6023L535.366 28.319C534.843 28.8437 534.169 29.1921 533.439 29.3155C532.708 29.4389 531.957 29.3311 531.291 29.0073C529.395 28.0813 527.442 27.2764 525.444 26.5972C524.74 26.3574 524.129 25.903 523.697 25.2978C523.265 24.6927 523.033 23.9673 523.034 23.2236V13.7086C523.034 13.2392 522.942 12.7743 522.762 12.3406C522.583 11.9069 522.319 11.5128 521.988 11.1809C521.656 10.849 521.262 10.5857 520.828 10.4061C520.394 10.2265 519.929 10.1341 519.46 10.1342H499.31C498.84 10.1341 498.376 10.2265 497.942 10.4061C497.508 10.5857 497.114 10.849 496.782 11.1809C496.45 11.5128 496.187 11.9069 496.007 12.3406C495.828 12.7743 495.735 13.2392 495.735 13.7086V23.2236C495.737 23.9673 495.505 24.6927 495.073 25.2978C494.64 25.903 494.029 26.3574 493.325 26.5972C491.328 27.2763 489.375 28.0812 487.479 29.0073C486.813 29.3311 486.062 29.4389 485.331 29.3155C484.601 29.1921 483.927 28.8437 483.404 28.319L476.687 21.6023C476.016 20.932 475.107 20.5555 474.158 20.5555C473.21 20.5555 472.3 20.932 471.629 21.6023L457.375 35.8496C456.704 36.5206 456.328 37.4302 456.328 38.3786C456.328 39.3271 456.704 40.2367 457.375 40.9077L463.973 47.5053C464.503 48.0318 464.854 48.712 464.975 49.4492C465.096 50.1865 464.982 50.9431 464.649 51.6118C463.683 53.5434 462.845 55.536 462.139 57.5769C461.892 58.2731 461.436 58.8757 460.833 59.3017C460.23 59.7277 459.509 59.9562 458.771 59.9557H449.488C449.018 59.9555 448.553 60.0478 448.12 60.2274C447.686 60.407 447.292 60.6703 446.96 61.0022C446.628 61.3342 446.365 61.7283 446.185 62.162C446.005 62.5958 445.913 63.0607 445.913 63.5301V83.6867C445.913 84.1562 446.005 84.621 446.185 85.0548C446.365 85.4885 446.628 85.8827 446.96 86.2146C447.292 86.5466 447.686 86.8099 448.12 86.9894C448.553 87.169 449.018 87.2613 449.488 87.2612H458.527C459.279 87.2606 460.012 87.4976 460.621 87.9383C461.23 88.379 461.684 89.0008 461.919 89.7151C462.616 91.8102 463.451 93.8573 464.417 95.8432C464.744 96.5121 464.855 97.2666 464.734 98.0015C464.613 98.7365 464.265 99.4154 463.74 99.9436L457.374 106.31C457.042 106.641 456.778 107.035 456.598 107.469C456.419 107.903 456.326 108.367 456.326 108.837C456.326 109.306 456.419 109.771 456.598 110.205C456.778 110.638 457.042 111.032 457.374 111.364L471.628 125.615C472.299 126.285 473.209 126.662 474.157 126.662C475.105 126.662 476.015 126.285 476.686 125.615L482.927 119.374C483.458 118.844 484.144 118.494 484.885 118.375C485.627 118.255 486.387 118.372 487.058 118.709C489.077 119.718 491.162 120.588 493.299 121.313C494.008 121.553 494.624 122.008 495.061 122.616C495.497 123.223 495.733 123.952 495.734 124.7V133.501C495.733 133.971 495.825 134.436 496.004 134.871C496.184 135.305 496.447 135.7 496.779 136.033C497.111 136.365 497.505 136.629 497.939 136.809C498.373 136.989 498.839 137.082 499.309 137.082H519.458C519.928 137.082 520.394 136.989 520.828 136.809C521.262 136.629 521.656 136.365 521.988 136.033C522.32 135.7 522.583 135.305 522.763 134.871C522.942 134.436 523.034 133.971 523.033 133.501V124.701C523.035 123.953 523.27 123.225 523.707 122.617C524.143 122.01 524.759 121.554 525.468 121.315C527.605 120.589 529.69 119.719 531.709 118.71C532.38 118.374 533.14 118.257 533.882 118.376C534.623 118.495 535.309 118.845 535.84 119.375L542.082 125.617C542.752 126.287 543.662 126.664 544.61 126.664C545.559 126.664 546.468 126.287 547.139 125.617L561.393 111.363C561.725 111.031 561.989 110.637 562.169 110.203C562.348 109.77 562.441 109.305 562.441 108.836C562.441 108.366 562.348 107.901 562.169 107.468C561.989 107.034 561.725 106.64 561.393 106.308L555.027 99.9423C554.502 99.4141 554.154 98.7352 554.033 98.0002C553.912 97.2652 554.023 96.5108 554.35 95.8418C555.317 93.8561 556.151 91.809 556.848 89.7137C557.083 88.9995 557.537 88.3776 558.146 87.937C558.755 87.4963 559.488 87.2593 560.24 87.2598H569.279C569.748 87.26 570.213 87.1677 570.647 86.9881C571.08 86.8085 571.475 86.5452 571.807 86.2133C572.139 85.8813 572.402 85.4872 572.581 85.0535C572.761 84.6197 572.853 84.1548 572.853 83.6854V63.5301C572.853 63.0609 572.761 62.5962 572.582 62.1627C572.402 61.7291 572.139 61.3351 571.808 61.0032C571.476 60.6712 571.082 60.4079 570.649 60.2282C570.215 60.0485 569.751 59.9559 569.281 59.9557ZM509.387 103.393C503.496 103.394 497.736 101.647 492.838 98.3741C487.939 95.1012 484.12 90.4491 481.865 85.0061C479.611 79.5631 479.02 73.5736 480.17 67.7952C481.319 62.0168 484.156 56.7089 488.322 52.543C492.488 48.377 497.796 45.5399 503.574 44.3907C509.353 43.2414 515.342 43.8315 520.785 46.0864C526.228 48.3412 530.88 52.1596 534.153 57.0585C537.426 61.9574 539.173 67.7168 539.172 73.6084C539.171 81.5075 536.033 89.0829 530.447 94.6684C524.862 100.254 517.287 103.392 509.387 103.393Z" fill="#F4F4F4"/>
<path d="M174.505 277.405H167.687C167.145 277.406 166.616 277.238 166.173 276.925C165.731 276.612 165.397 276.169 165.217 275.658C164.695 274.159 164.078 272.696 163.369 271.276C163.124 270.785 163.04 270.229 163.13 269.687C163.219 269.146 163.476 268.646 163.865 268.259L168.714 263.412C169.207 262.919 169.483 262.251 169.483 261.554C169.483 260.858 169.207 260.189 168.714 259.697L158.245 249.232C157.752 248.74 157.084 248.463 156.387 248.463C155.69 248.463 155.022 248.74 154.529 249.232L149.596 254.166C149.212 254.551 148.717 254.807 148.181 254.897C147.644 254.988 147.093 254.909 146.604 254.671C145.211 253.991 143.777 253.4 142.31 252.901C141.793 252.725 141.344 252.391 141.026 251.947C140.709 251.502 140.538 250.969 140.539 250.423V243.435C140.539 243.09 140.472 242.749 140.34 242.43C140.208 242.112 140.014 241.822 139.771 241.578C139.527 241.335 139.237 241.141 138.919 241.009C138.6 240.877 138.259 240.809 137.914 240.81H123.109C122.764 240.809 122.422 240.877 122.104 241.009C121.785 241.141 121.496 241.335 121.252 241.578C121.008 241.822 120.815 242.112 120.683 242.43C120.551 242.749 120.483 243.09 120.483 243.435V250.424C120.484 250.971 120.314 251.503 119.997 251.948C119.679 252.392 119.23 252.726 118.713 252.902C117.246 253.401 115.812 253.992 114.419 254.672C113.93 254.91 113.378 254.99 112.842 254.899C112.305 254.808 111.81 254.552 111.426 254.167L106.493 249.233C106 248.741 105.332 248.464 104.635 248.464C103.938 248.464 103.27 248.741 102.777 249.233L92.3079 259.698C91.8155 260.191 91.5388 260.859 91.5388 261.556C91.5388 262.252 91.8155 262.921 92.3079 263.413L97.1539 268.259C97.5431 268.646 97.8006 269.146 97.8898 269.687C97.979 270.229 97.8953 270.785 97.6506 271.276C96.9414 272.695 96.3254 274.159 95.8066 275.658C95.6257 276.169 95.2907 276.612 94.8478 276.925C94.4048 277.238 93.8757 277.406 93.3334 277.405H86.5137C86.1689 277.405 85.8274 277.473 85.5088 277.605C85.1903 277.737 84.9008 277.93 84.657 278.174C84.4132 278.418 84.2198 278.707 84.0879 279.026C83.956 279.345 83.8881 279.686 83.8882 280.031V294.836C83.8881 295.181 83.956 295.522 84.0879 295.841C84.2198 296.159 84.4132 296.449 84.657 296.693C84.9008 296.937 85.1903 297.13 85.5088 297.262C85.8274 297.394 86.1689 297.462 86.5137 297.461H93.1532C93.7055 297.461 94.2438 297.635 94.6914 297.958C95.1389 298.282 95.4727 298.739 95.645 299.264C96.1575 300.803 96.7704 302.306 97.4797 303.765C97.7206 304.256 97.8022 304.811 97.7131 305.351C97.6241 305.89 97.3689 306.389 96.983 306.777L92.3073 311.453C92.0634 311.697 91.87 311.986 91.738 312.304C91.606 312.623 91.5381 312.964 91.5381 313.308C91.5381 313.653 91.606 313.994 91.738 314.313C91.87 314.631 92.0634 314.92 92.3073 315.163L102.777 325.633C103.269 326.126 103.938 326.403 104.634 326.403C105.331 326.403 105.999 326.126 106.492 325.633L111.076 321.049C111.467 320.659 111.97 320.403 112.515 320.316C113.059 320.228 113.618 320.314 114.11 320.562C115.593 321.303 117.125 321.942 118.695 322.475C119.215 322.651 119.668 322.985 119.988 323.431C120.309 323.877 120.482 324.412 120.483 324.962V331.427C120.483 331.772 120.55 332.114 120.682 332.433C120.814 332.752 121.007 333.042 121.251 333.286C121.495 333.53 121.784 333.724 122.103 333.856C122.422 333.988 122.764 334.057 123.109 334.057H137.91C138.255 334.057 138.597 333.988 138.916 333.856C139.234 333.724 139.524 333.53 139.768 333.286C140.012 333.042 140.205 332.752 140.337 332.433C140.468 332.114 140.536 331.772 140.535 331.427V324.962C140.536 324.412 140.709 323.877 141.03 323.431C141.351 322.985 141.803 322.651 142.324 322.475C143.893 321.942 145.425 321.303 146.908 320.562C147.401 320.314 147.959 320.228 148.504 320.316C149.049 320.403 149.552 320.659 149.943 321.049L154.527 325.633C155.019 326.126 155.688 326.403 156.384 326.403C157.081 326.403 157.749 326.126 158.242 325.633L168.714 315.163C168.958 314.92 169.151 314.631 169.283 314.313C169.415 313.994 169.483 313.653 169.483 313.308C169.483 312.964 169.415 312.623 169.283 312.304C169.151 311.986 168.958 311.697 168.714 311.453L164.038 306.777C163.653 306.389 163.397 305.89 163.308 305.351C163.219 304.811 163.301 304.256 163.542 303.765C164.251 302.306 164.864 300.803 165.376 299.264C165.549 298.739 165.882 298.282 166.33 297.958C166.777 297.635 167.316 297.461 167.868 297.461H174.508C174.852 297.462 175.194 297.394 175.512 297.262C175.831 297.13 176.121 296.937 176.364 296.693C176.608 296.449 176.802 296.159 176.933 295.841C177.065 295.522 177.133 295.181 177.133 294.836V280.031C177.133 279.686 177.065 279.344 176.933 279.025C176.801 278.707 176.608 278.417 176.363 278.173C176.119 277.929 175.83 277.736 175.511 277.604C175.192 277.472 174.85 277.405 174.505 277.405ZM130.512 309.311C126.184 309.311 121.954 308.028 118.356 305.623C114.758 303.219 111.954 299.802 110.298 295.804C108.642 291.807 108.209 287.407 109.053 283.163C109.897 278.919 111.981 275.021 115.041 271.961C118.101 268.901 121.999 266.817 126.243 265.973C130.487 265.129 134.887 265.562 138.884 267.218C142.882 268.874 146.299 271.678 148.703 275.276C151.107 278.874 152.391 283.104 152.391 287.432C152.391 290.305 151.825 293.15 150.725 295.804C149.626 298.459 148.014 300.871 145.982 302.902C143.951 304.934 141.539 306.546 138.884 307.645C136.23 308.745 133.385 309.311 130.512 309.311Z" fill="#F4F4F4"/>
<path d="M123.369 156.422H114.085C113.347 156.423 112.627 156.195 112.025 155.769C111.423 155.342 110.968 154.739 110.724 154.043C110.013 152.003 109.172 150.01 108.207 148.077C107.874 147.409 107.76 146.652 107.881 145.915C108.003 145.178 108.353 144.497 108.883 143.971L115.481 137.373C116.151 136.702 116.528 135.793 116.528 134.844C116.528 133.896 116.151 132.986 115.481 132.315L101.228 118.068C100.557 117.398 99.6472 117.021 98.6987 117.021C97.7503 117.021 96.8407 117.398 96.1697 118.068L89.453 124.785C88.9302 125.31 88.2563 125.658 87.5257 125.782C86.7951 125.905 86.0441 125.797 85.3778 125.473C83.4817 124.547 81.5289 123.742 79.531 123.063C78.8271 122.823 78.216 122.369 77.7837 121.763C77.3514 121.158 77.1197 120.433 77.121 119.689V110.174C77.1212 109.705 77.0289 109.24 76.8493 108.806C76.6697 108.372 76.4064 107.978 76.0745 107.646C75.7425 107.314 75.3484 107.051 74.9147 106.871C74.4809 106.692 74.016 106.6 73.5466 106.6H53.3966C52.9272 106.6 52.4624 106.692 52.0288 106.872C51.5951 107.051 51.201 107.315 50.8692 107.647C50.5373 107.978 50.2741 108.373 50.0945 108.806C49.915 109.24 49.8227 109.705 49.8229 110.174V119.689C49.8241 120.433 49.5923 121.158 49.16 121.763C48.7278 122.368 48.1167 122.823 47.4128 123.063C45.4149 123.742 43.4621 124.547 41.566 125.473C40.8997 125.797 40.1488 125.905 39.4182 125.782C38.6875 125.658 38.0137 125.31 37.4908 124.785L30.7742 118.068C30.1032 117.398 29.1936 117.021 28.2451 117.021C27.2967 117.021 26.3871 117.398 25.7161 118.068L11.4615 132.315C10.7912 132.986 10.4147 133.896 10.4147 134.844C10.4147 135.793 10.7912 136.702 11.4615 137.373L18.0598 143.971C18.5898 144.497 18.9404 145.178 19.0617 145.915C19.183 146.652 19.0689 147.409 18.7354 148.077C17.7697 150.009 16.9313 152.002 16.2257 154.043C15.979 154.739 15.5227 155.342 14.9195 155.768C14.3163 156.194 13.5958 156.422 12.8574 156.422H3.57445C3.10503 156.422 2.64016 156.514 2.20641 156.693C1.77266 156.873 1.37855 157.136 1.04658 157.468C0.714621 157.8 0.451326 158.194 0.271746 158.628C0.0921671 159.061 -0.000174282 159.526 5.57429e-07 159.996V180.152C-0.000261696 180.622 0.0920152 181.087 0.271555 181.521C0.451095 181.954 0.714377 182.348 1.04635 182.68C1.37832 183.012 1.77247 183.276 2.20626 183.455C2.64005 183.635 3.10497 183.727 3.57445 183.727H12.6133C13.3651 183.726 14.0977 183.963 14.7067 184.404C15.3158 184.845 15.7701 185.467 16.0049 186.181C16.7025 188.276 17.5369 190.323 18.5027 192.309C18.8304 192.978 18.9413 193.733 18.8201 194.467C18.6989 195.202 18.3515 195.881 17.8264 196.409L11.4602 202.775C11.128 203.107 10.8645 203.501 10.6847 203.935C10.5049 204.368 10.4123 204.833 10.4123 205.302C10.4123 205.772 10.5049 206.237 10.6847 206.67C10.8645 207.104 11.128 207.498 11.4602 207.83L25.7141 222.083C26.3851 222.753 27.2947 223.13 28.2431 223.13C29.1916 223.13 30.1012 222.753 30.7722 222.083L37.0127 215.842C37.5444 215.311 38.2296 214.961 38.9712 214.842C39.7128 214.723 40.4731 214.84 41.1444 215.177C43.1633 216.185 45.2485 217.055 47.3856 217.78C48.0943 218.02 48.7102 218.475 49.1469 219.083C49.5837 219.69 49.8193 220.419 49.8209 221.167V229.969C49.8201 230.438 49.9119 230.904 50.0912 231.338C50.2704 231.772 50.5335 232.167 50.8654 232.5C51.1974 232.832 51.5916 233.096 52.0256 233.276C52.4596 233.456 52.9248 233.549 53.3946 233.549H73.5446C74.0145 233.549 74.4798 233.456 74.9138 233.276C75.3479 233.096 75.7422 232.832 76.0742 232.5C76.4062 232.167 76.6694 231.773 76.8487 231.338C77.0279 230.904 77.1198 230.438 77.119 229.969V221.167C77.1206 220.419 77.3562 219.69 77.793 219.083C78.2297 218.475 78.8456 218.02 79.5543 217.78C81.6912 217.055 83.7762 216.185 85.7948 215.177C86.4661 214.84 87.2265 214.723 87.968 214.842C88.7096 214.961 89.3948 215.311 89.9265 215.842L96.1677 222.083C96.8387 222.753 97.7483 223.13 98.6967 223.13C99.6452 223.13 100.555 222.753 101.226 222.083L115.479 207.83C115.811 207.498 116.075 207.104 116.255 206.67C116.434 206.237 116.527 205.772 116.527 205.302C116.527 204.833 116.434 204.368 116.255 203.935C116.075 203.501 115.811 203.107 115.479 202.775L109.113 196.409C108.588 195.881 108.24 195.202 108.119 194.467C107.998 193.733 108.109 192.978 108.437 192.309C109.403 190.324 110.237 188.276 110.934 186.181C111.169 185.467 111.623 184.845 112.232 184.404C112.842 183.963 113.574 183.726 114.326 183.727H123.365C123.835 183.727 124.3 183.635 124.733 183.455C125.167 183.275 125.561 183.012 125.893 182.68C126.225 182.348 126.488 181.954 126.668 181.52C126.847 181.087 126.939 180.622 126.939 180.152V159.996C126.94 159.048 126.564 158.14 125.894 157.469C125.224 156.799 124.316 156.422 123.369 156.422ZM63.4743 199.859C57.5827 199.859 51.8232 198.113 46.9243 194.84C42.0254 191.567 38.2071 186.915 35.9522 181.472C33.6974 176.029 33.1073 170.039 34.2565 164.261C35.4058 158.482 38.2428 153.175 42.4088 149.009C46.5748 144.843 51.8826 142.006 57.661 140.856C63.4395 139.707 69.4289 140.297 74.8719 142.552C80.315 144.807 84.9671 148.625 88.24 153.524C91.5128 158.423 93.2594 164.182 93.2589 170.074C93.258 177.973 90.1197 185.548 84.5342 191.134C78.9487 196.719 71.3734 199.858 63.4743 199.859Z" fill="#F4F4F4"/>
<path d="M93.9765 287.613L443.63 287.613C452.216 287.613 459.177 280.652 459.177 272.065L459.177 16.0654C459.177 7.47882 452.216 0.518036 443.63 0.518036L93.9765 0.518036C85.3899 0.518036 78.4292 7.47882 78.4292 16.0654L78.4292 272.065C78.4292 280.652 85.3899 287.613 93.9765 287.613Z" fill="white"/>
<path d="M77.9104 272.065V16.0654C77.9155 11.8061 79.6098 7.72261 82.6217 4.71085C85.6336 1.69909 89.7171 0.00492778 93.9765 0L443.631 0C447.89 0.00492778 451.974 1.69909 454.986 4.71085C457.998 7.72261 459.692 11.8061 459.697 16.0654V272.065C459.692 276.325 457.998 280.408 454.986 283.42C451.974 286.432 447.89 288.126 443.631 288.131H93.9765C89.7171 288.126 85.6335 286.432 82.6215 283.42C79.6096 280.408 77.9153 276.325 77.9104 272.065ZM93.9765 1.03676C89.9919 1.04133 86.1718 2.62624 83.3542 5.4438C80.5366 8.26135 78.9517 12.0815 78.9472 16.0661V272.065C78.9517 276.05 80.5366 279.87 83.3542 282.688C86.1718 285.505 89.9919 287.09 93.9765 287.095H443.631C447.616 287.09 451.436 285.505 454.253 282.688C457.071 279.87 458.656 276.05 458.66 272.065V16.0654C458.656 12.0807 457.071 8.26053 454.253 5.44294C451.436 2.62535 447.616 1.04049 443.631 1.03609L93.9765 1.03676Z" fill="#292A2E"/>
<path d="M78.4291 16.0634V31.7078H459.176V16.0634C459.176 11.9404 457.538 7.9863 454.623 5.07068C451.708 2.15506 447.754 0.516727 443.631 0.516022H93.9765C89.8531 0.516022 85.8985 2.15404 82.9828 5.06974C80.0671 7.98544 78.4291 11.94 78.4291 16.0634Z" fill="#292A2E"/>
<path d="M145.448 174.192C137.122 174.192 128.983 171.723 122.061 167.097C115.138 162.472 109.743 155.898 106.557 148.206C103.371 140.514 102.537 132.05 104.161 123.884C105.786 115.718 109.795 108.218 115.682 102.33C121.569 96.4433 129.07 92.4341 137.235 90.8098C145.401 89.1856 153.865 90.0192 161.557 93.2053C169.249 96.3914 175.823 101.787 180.449 108.709C185.074 115.632 187.543 123.771 187.543 132.096C187.53 143.257 183.091 153.956 175.2 161.848C167.308 169.74 156.608 174.179 145.448 174.192ZM145.448 91.331C137.385 91.331 129.504 93.7219 122.8 98.2012C116.096 102.681 110.871 109.047 107.786 116.496C104.7 123.945 103.893 132.142 105.466 140.049C107.039 147.957 110.921 155.221 116.622 160.922C122.324 166.623 129.587 170.506 137.495 172.078C145.403 173.651 153.599 172.844 161.048 169.759C168.497 166.673 174.864 161.448 179.343 154.744C183.822 148.041 186.213 140.159 186.213 132.096C186.201 121.288 181.903 110.926 174.26 103.283C166.618 95.6401 156.256 91.3409 145.448 91.3284V91.331Z" fill="#292A2E"/>
<path d="M268.803 174.192C260.477 174.192 252.338 171.723 245.416 167.097C238.493 162.472 233.098 155.898 229.912 148.206C226.726 140.514 225.892 132.05 227.516 123.884C229.14 115.718 233.15 108.218 239.037 102.33C244.924 96.4433 252.425 92.4341 260.59 90.8098C268.756 89.1856 277.22 90.0192 284.912 93.2053C292.604 96.3914 299.178 101.787 303.804 108.709C308.429 115.632 310.898 123.771 310.898 132.096C310.885 143.257 306.446 153.956 298.554 161.848C290.663 169.74 279.963 174.179 268.803 174.192ZM268.803 91.331C260.74 91.331 252.858 93.7219 246.155 98.2012C239.451 102.681 234.226 109.047 231.14 116.496C228.055 123.945 227.248 132.142 228.821 140.049C230.394 147.957 234.276 155.221 239.977 160.922C245.678 166.623 252.942 170.506 260.85 172.078C268.757 173.651 276.954 172.844 284.403 169.759C291.852 166.673 298.218 161.448 302.698 154.744C307.177 148.041 309.568 140.159 309.568 132.096C309.556 121.288 305.258 110.926 297.615 103.283C289.973 95.6401 279.611 91.3409 268.803 91.3284V91.331Z" fill="#292A2E"/>
<path d="M392.159 174.192C383.833 174.192 375.694 171.723 368.772 167.097C361.849 162.472 356.454 155.898 353.268 148.206C350.082 140.514 349.248 132.05 350.872 123.884C352.497 115.718 356.506 108.218 362.393 102.33C368.28 96.4433 375.781 92.4341 383.946 90.8098C392.112 89.1856 400.576 90.0192 408.268 93.2053C415.96 96.3914 422.534 101.787 427.16 108.709C431.785 115.632 434.254 123.771 434.254 132.096C434.241 143.257 429.802 153.956 421.911 161.848C414.019 169.74 403.319 174.179 392.159 174.192ZM392.159 91.331C384.096 91.331 376.215 93.7219 369.511 98.2012C362.807 102.681 357.582 109.047 354.497 116.496C351.411 123.945 350.604 132.142 352.177 140.049C353.75 147.957 357.632 155.221 363.333 160.922C369.035 166.623 376.298 170.506 384.206 172.078C392.114 173.651 400.31 172.844 407.759 169.759C415.208 166.673 421.575 161.448 426.054 154.744C430.533 148.041 432.924 140.159 432.924 132.096C432.912 121.288 428.614 110.926 420.971 103.283C413.329 95.6401 402.967 91.3409 392.159 91.3284V91.331Z" fill="#292A2E"/>
<path opacity="0.6" d="M418.363 138.161V111.95H388.122V132.515H410.482L418.363 138.161Z" fill="#58DF66"/>
<path d="M365.953 157.208V121.76H406.854V149.573H376.613L365.953 157.208Z" fill="#58DF66"/>
<path d="M375.224 139.483C377.182 139.483 378.769 137.896 378.769 135.939C378.769 133.981 377.182 132.394 375.224 132.394C373.267 132.394 371.68 133.981 371.68 135.939C371.68 137.896 373.267 139.483 375.224 139.483Z" fill="white"/>
<path d="M386.404 139.483C388.361 139.483 389.948 137.896 389.948 135.939C389.948 133.981 388.361 132.394 386.404 132.394C384.446 132.394 382.859 133.981 382.859 135.939C382.859 137.896 384.446 139.483 386.404 139.483Z" fill="white"/>
<path d="M397.583 139.483C399.541 139.483 401.128 137.896 401.128 135.939C401.128 133.981 399.541 132.394 397.583 132.394C395.626 132.394 394.039 133.981 394.039 135.939C394.039 137.896 395.626 139.483 397.583 139.483Z" fill="white"/>
<path d="M166.421 144.976C166.828 145.248 167.115 145.666 167.223 146.144C167.33 146.622 167.25 147.123 166.998 147.543L164.705 151.363C164.097 152.396 163.114 153.156 161.961 153.485C158.15 154.53 149.745 154.74 136.273 141.27C122.802 127.8 123.014 119.391 124.059 115.582C124.387 114.429 125.146 113.446 126.179 112.837L130.001 110.545C130.421 110.293 130.922 110.212 131.399 110.32C131.877 110.428 132.295 110.715 132.566 111.123L138.659 120.262C138.925 120.662 139.03 121.148 138.953 121.623C138.876 122.097 138.622 122.525 138.243 122.82L134.821 125.48C134.462 125.757 134.214 126.154 134.122 126.598C134.031 127.042 134.101 127.504 134.321 127.901C135.325 129.707 136.277 131.836 140.989 136.554C145.701 141.272 147.839 142.218 149.642 143.222C150.039 143.442 150.501 143.512 150.945 143.42C151.389 143.328 151.785 143.08 152.061 142.72L154.722 139.3C155.017 138.92 155.445 138.666 155.919 138.589C156.394 138.512 156.88 138.617 157.28 138.884L166.421 144.976Z" fill="#58DF66"/>
<path opacity="0.6" d="M290.496 146.892H247.28C246.794 146.894 246.327 146.704 245.982 146.362C245.636 146.02 245.441 145.555 245.438 145.069L245.287 119.168C245.286 118.953 245.327 118.74 245.408 118.542C245.489 118.343 245.608 118.162 245.759 118.009C245.91 117.857 246.089 117.736 246.287 117.652C246.485 117.569 246.697 117.526 246.912 117.525L290.527 117.301C290.96 117.299 291.376 117.469 291.683 117.773C291.991 118.078 292.165 118.492 292.168 118.925L292.319 145.05C292.32 145.291 292.274 145.529 292.183 145.752C292.092 145.975 291.958 146.177 291.789 146.349C291.62 146.52 291.418 146.656 291.197 146.749C290.975 146.842 290.737 146.891 290.496 146.892Z" fill="#58DF66"/>
<path d="M291.703 117.791C289.123 119.686 270.383 133.478 270.363 133.492C269.855 133.777 269.279 133.921 268.695 133.91C268.112 133.898 267.542 133.731 267.045 133.425L245.731 118.043C245.882 117.881 246.066 117.751 246.269 117.662C246.473 117.573 246.693 117.526 246.915 117.525L290.526 117.299C290.745 117.298 290.962 117.341 291.164 117.426C291.366 117.51 291.55 117.634 291.703 117.791Z" fill="#58DF66"/>
<path d="M470.577 149.739C478.947 149.739 485.732 142.954 485.732 134.584C485.732 126.213 478.947 119.428 470.577 119.428C462.206 119.428 455.421 126.213 455.421 134.584C455.421 142.954 462.206 149.739 470.577 149.739Z" fill="#00B612"/>
<path d="M463.474 133.148C463.084 133.148 462.703 133.034 462.377 132.82C462.052 132.606 461.796 132.301 461.641 131.943C461.368 131.309 455.024 116.168 461.915 93.9565C469.379 69.897 495.378 69.617 495.639 69.617C496.168 69.617 496.676 69.8272 497.05 70.2013C497.424 70.5755 497.634 71.0829 497.634 71.612C497.634 72.1412 497.424 72.6486 497.05 73.0228C496.676 73.3969 496.168 73.6071 495.639 73.6071C494.689 73.6071 472.305 73.9203 465.722 95.1376C459.264 115.953 465.241 130.219 465.302 130.361C465.433 130.664 465.486 130.995 465.458 131.325C465.429 131.654 465.319 131.971 465.137 132.247C464.956 132.523 464.708 132.75 464.418 132.907C464.127 133.064 463.801 133.146 463.471 133.146L463.474 133.148Z" fill="#00B612"/>
<path d="M465.09 149.739C473.46 149.739 480.245 142.954 480.245 134.584C480.245 126.213 473.46 119.428 465.09 119.428C456.719 119.428 449.934 126.213 449.934 134.584C449.934 142.954 456.719 149.739 465.09 149.739Z" fill="#00B612"/>
<path opacity="0.3" d="M465.09 149.739C473.46 149.739 480.245 142.954 480.245 134.584C480.245 126.213 473.46 119.428 465.09 119.428C456.719 119.428 449.934 126.213 449.934 134.584C449.934 142.954 456.719 149.739 465.09 149.739Z" fill="white"/>
<path d="M468.726 149.739C477.096 149.739 483.882 142.954 483.882 134.584C483.882 126.213 477.096 119.428 468.726 119.428C460.356 119.428 453.57 126.213 453.57 134.584C453.57 142.954 460.356 149.739 468.726 149.739Z" fill="#00B612"/>
<path d="M540.216 107.314C540.216 107.314 545.085 130.646 550.9 137.705C567.642 158.026 574.99 182.437 562.976 197.326C550.963 212.216 467.273 224.242 456.574 195.162C447.569 170.679 457.23 166.344 457.347 145.13C457.401 135.531 458.729 115.286 458.729 115.286" fill="#0A0A0A"/>
<path d="M470.27 182.818C470.423 182.798 472.121 210.968 504.847 208.512C527.502 206.815 535.58 182.776 536.102 182.776C533.66 182.257 529.547 181.502 528.462 180.923C524.894 179.006 520.482 177.011 519.33 170.083C518.665 166.093 519.792 145.663 519.446 141.621L484.67 149.383C485.156 157.915 488.557 177.696 476.636 181.196C474.65 181.78 472.513 182.312 470.27 182.818Z" fill="#E98862"/>
<path opacity="0.5" d="M484.179 173.116C484.723 171.361 485.074 169.551 485.225 167.719C485.607 163.539 485.531 159.329 484.997 155.165C492.065 154.211 498.724 151.294 504.216 146.745C504.863 149.129 508.414 159.55 507.43 161.817C505.573 166.101 496.839 173.116 484.179 173.116Z" fill="#0C0C0C"/>
<path d="M490.37 166.929C504.136 166.411 520.983 158.605 522.185 140.019L523.27 123.248C524.471 104.663 515.684 88.9643 498.184 87.8324C480.684 86.7019 466.629 100.922 465.427 119.508L464.947 126.933C464.486 134.067 465.81 167.85 490.37 166.929Z" fill="#E98862"/>
<path opacity="0.1" d="M495.807 142.055C498.079 142.021 499.901 140.642 499.875 138.975C499.85 137.309 497.987 135.986 495.715 136.02C493.443 136.055 491.622 137.434 491.647 139.101C491.673 140.767 493.535 142.09 495.807 142.055Z" fill="#0C0C0C"/>
<path opacity="0.1" d="M471.296 138.681C471.316 140.343 469.495 141.723 467.224 141.761C466.831 141.767 466.438 141.732 466.053 141.657C465.685 139.718 465.426 137.84 465.249 136.093C465.849 135.854 466.488 135.73 467.134 135.725C469.408 135.687 471.27 137.01 471.296 138.681Z" fill="#0C0C0C"/>
<path d="M470.676 126.162C471.865 126.162 472.829 125.198 472.829 124.009C472.829 122.82 471.865 121.857 470.676 121.857C469.487 121.857 468.524 122.82 468.524 124.009C468.524 125.198 469.487 126.162 470.676 126.162Z" fill="#0C0C0C"/>
<path d="M491.977 127.753C493.166 127.753 494.13 126.789 494.13 125.601C494.13 124.412 493.166 123.448 491.977 123.448C490.789 123.448 489.825 124.412 489.825 125.601C489.825 126.789 490.789 127.753 491.977 127.753Z" fill="#0C0C0C"/>
<path opacity="0.5" d="M481.861 142.411H481.827C481.117 142.359 480.411 142.269 479.711 142.141C478.666 141.941 477.283 141.568 477.343 140.638C477.41 139.579 481.051 128.34 481.466 127.062C481.506 126.955 481.585 126.867 481.688 126.817C481.791 126.766 481.91 126.758 482.019 126.794C482.128 126.829 482.219 126.905 482.273 127.006C482.327 127.107 482.339 127.225 482.308 127.336C480.755 132.124 478.273 139.983 478.227 140.696C478.38 141.004 480.125 141.413 481.885 141.527C481.998 141.535 482.104 141.587 482.18 141.672C482.256 141.756 482.297 141.867 482.294 141.98C482.291 142.094 482.245 142.202 482.164 142.283C482.083 142.363 481.975 142.409 481.861 142.411L481.861 142.411Z" fill="#0C0C0C"/>
<path opacity="0.5" d="M485.358 149.941C482.524 149.923 479.734 149.24 477.213 147.946C477.161 147.92 477.114 147.885 477.076 147.841C477.037 147.797 477.008 147.747 476.989 147.692C476.951 147.581 476.958 147.459 477.01 147.354C477.062 147.248 477.153 147.168 477.264 147.13C477.375 147.092 477.496 147.099 477.602 147.151C483.04 149.811 488.109 149.726 492.257 146.905C492.341 146.845 492.427 146.79 492.517 146.739C492.621 146.692 492.739 146.687 492.847 146.725C492.955 146.762 493.044 146.841 493.096 146.943C493.147 147.045 493.157 147.163 493.124 147.272C493.09 147.382 493.016 147.474 492.916 147.529C492.883 147.548 492.829 147.585 492.754 147.637C490.572 149.124 487.997 149.926 485.358 149.941Z" fill="#0C0C0C"/>
<path d="M537.438 127.26L521.762 126.336C509.574 123.067 503.589 103.4 503.589 103.4C503.589 103.4 493.838 118.881 458.7 115.27C458.7 115.27 456.988 66.0805 509.222 74.4091C526.02 77.0878 539.755 91.8424 540.999 113.948C541.87 129.439 537.438 127.26 537.438 127.26Z" fill="#0A0A0A"/>
<path d="M520.732 145.611C526.052 145.955 530.729 140.544 531.073 135.226C531.417 129.908 527.296 126.696 521.977 126.353L519.006 129.739L516.159 145.316L520.732 145.611Z" fill="#E98862"/>
<path d="M476.659 119.141C475.24 118.399 473.65 118.047 472.05 118.119C471.246 118.15 470.451 118.303 469.693 118.571C468.927 118.837 468.198 119.199 467.522 119.647L467.501 119.661C467.426 119.707 467.335 119.722 467.249 119.702C467.163 119.682 467.088 119.63 467.04 119.556C466.992 119.481 466.975 119.391 466.992 119.305C467.01 119.218 467.061 119.142 467.134 119.092C467.845 118.584 468.618 118.168 469.433 117.854C470.254 117.533 471.118 117.338 471.997 117.274C473.776 117.134 475.56 117.474 477.163 118.258C477.283 118.318 477.375 118.424 477.418 118.552C477.46 118.68 477.451 118.819 477.39 118.94C477.33 119.06 477.224 119.152 477.097 119.195C476.969 119.237 476.829 119.227 476.709 119.167L476.696 119.161L476.659 119.141Z" fill="#0C0C0C"/>
<path d="M490.871 119.187C492.56 118.609 494.372 118.494 496.12 118.855C496.984 119.027 497.817 119.328 498.592 119.748C499.362 120.162 500.077 120.671 500.72 121.263C500.785 121.322 500.824 121.404 500.83 121.491C500.836 121.578 500.808 121.665 500.752 121.732C500.696 121.799 500.616 121.842 500.529 121.851C500.442 121.86 500.355 121.836 500.285 121.782L500.265 121.766C499.65 121.237 498.972 120.787 498.246 120.427C497.526 120.067 496.756 119.817 495.962 119.687C494.384 119.416 492.763 119.567 491.262 120.126L491.226 120.141C491.164 120.165 491.097 120.177 491.031 120.175C490.964 120.174 490.898 120.16 490.837 120.133C490.776 120.106 490.721 120.067 490.674 120.019C490.628 119.971 490.592 119.914 490.568 119.852C490.543 119.79 490.531 119.724 490.533 119.657C490.534 119.59 490.549 119.524 490.575 119.463C490.602 119.402 490.641 119.347 490.689 119.301C490.737 119.254 490.794 119.218 490.856 119.194L490.871 119.187Z" fill="#0C0C0C"/>
<path opacity="0.52" d="M485.273 154.138C484.761 154.142 484.249 154.103 483.743 154.021C483.686 154.012 483.631 153.992 483.581 153.961C483.532 153.931 483.489 153.891 483.455 153.844C483.421 153.797 483.396 153.744 483.383 153.687C483.369 153.631 483.367 153.572 483.376 153.515C483.385 153.457 483.405 153.402 483.436 153.353C483.466 153.303 483.506 153.26 483.553 153.226C483.6 153.192 483.653 153.168 483.71 153.154C483.766 153.141 483.825 153.138 483.882 153.147C486.925 153.632 488.459 152.305 488.523 152.248C488.61 152.17 488.725 152.129 488.842 152.135C488.959 152.141 489.069 152.193 489.148 152.28C489.227 152.367 489.268 152.482 489.262 152.599C489.256 152.716 489.204 152.826 489.117 152.905C488.016 153.747 486.658 154.183 485.273 154.138Z" fill="#0C0C0C"/>
<path d="M521.933 126.103C511.15 123.667 506.787 117.035 505.026 111.9C503.872 108.473 503.448 104.842 503.779 101.241L504.111 101.286C503.787 104.84 504.208 108.422 505.348 111.804C507.083 116.854 511.383 123.375 522.01 125.779L521.933 126.103Z" fill="#0C0C0C"/>
<path d="M356.124 193.661L345.452 173.539C345.218 173.097 344.893 172.709 344.501 172.399C344.108 172.089 343.654 171.864 343.17 171.739C342.685 171.614 342.18 171.591 341.686 171.672C341.193 171.753 340.721 171.936 340.302 172.209C339.543 172.737 339.007 173.528 338.798 174.428C338.589 175.329 338.722 176.275 339.171 177.083L341.459 181.397L328.036 171.131C326.563 169.964 324.01 169.473 322.809 171.211C322.303 171.85 322.029 172.641 322.031 173.456C322.032 174.27 322.31 175.06 322.818 175.697C322.804 175.708 322.791 175.721 322.779 175.734C322.77 175.746 322.768 175.76 322.761 175.772L320.49 173.968C320.07 173.634 319.58 173.399 319.057 173.279C318.533 173.159 317.99 173.158 317.466 173.274C316.942 173.391 316.451 173.623 316.028 173.954C315.605 174.284 315.261 174.705 315.022 175.185C314.66 175.949 314.571 176.814 314.771 177.636C314.97 178.457 315.445 179.186 316.117 179.699L317.084 180.465C317.075 180.503 317.072 180.543 317.077 180.582C316.304 180.216 315.426 180.137 314.6 180.358C313.774 180.58 313.054 181.088 312.569 181.792C312.06 182.578 311.867 183.527 312.027 184.45C312.187 185.372 312.689 186.2 313.433 186.769L315.833 188.671C315.78 188.668 315.727 188.678 315.679 188.699C315.63 188.721 315.588 188.753 315.555 188.795C315.518 188.846 315.497 188.906 315.493 188.969C314.714 188.834 313.913 188.959 313.212 189.324C312.511 189.69 311.949 190.275 311.613 190.991C311.275 191.75 311.204 192.6 311.41 193.405C311.616 194.209 312.087 194.921 312.748 195.424L333 211.478C335.833 213.724 339.272 215.072 342.877 215.35C346.482 215.629 350.087 214.825 353.232 213.041C355.943 211.502 357.947 208.968 358.82 205.975C359.692 202.982 359.363 199.768 357.903 197.014L356.124 193.661Z" fill="#E98862"/>
<g opacity="0.2">
<path d="M336.056 185.923C336.002 185.99 335.923 186.034 335.837 186.044C335.75 186.055 335.664 186.031 335.595 185.978L322.841 176.199C322.806 176.172 322.777 176.139 322.755 176.101C322.734 176.063 322.719 176.022 322.714 175.978C322.708 175.935 322.711 175.891 322.722 175.849C322.733 175.807 322.753 175.767 322.78 175.732C322.806 175.698 322.839 175.669 322.877 175.647C322.915 175.625 322.957 175.611 323 175.605C323.043 175.599 323.087 175.602 323.13 175.613C323.172 175.625 323.211 175.644 323.246 175.671L336 185.451C336.069 185.504 336.115 185.583 336.127 185.671C336.138 185.758 336.114 185.846 336.061 185.916L336.056 185.923Z" fill="#0C0C0C"/>
</g>
<g opacity="0.2">
<path d="M331.898 191.666C331.843 191.734 331.765 191.778 331.678 191.788C331.592 191.798 331.505 191.774 331.436 191.722L317.205 180.808C317.135 180.754 317.09 180.675 317.078 180.588C317.066 180.501 317.09 180.412 317.143 180.343C317.199 180.275 317.278 180.232 317.364 180.22C317.45 180.209 317.538 180.23 317.609 180.281L331.842 191.192C331.912 191.245 331.958 191.324 331.969 191.412C331.981 191.499 331.957 191.587 331.904 191.657L331.898 191.666Z" fill="#0C0C0C"/>
</g>
<g opacity="0.2">
<path d="M327.431 197.913C327.377 197.981 327.298 198.025 327.211 198.035C327.125 198.045 327.038 198.022 326.969 197.969L315.616 189.263C315.546 189.209 315.5 189.13 315.488 189.042C315.477 188.955 315.5 188.867 315.554 188.796C315.608 188.726 315.687 188.681 315.775 188.669C315.862 188.658 315.951 188.681 316.021 188.735L327.374 197.443C327.444 197.496 327.489 197.575 327.501 197.663C327.513 197.75 327.489 197.838 327.436 197.908L327.431 197.913Z" fill="#0C0C0C"/>
</g>
<path d="M432.134 194.777L397.627 255.262L362.36 190.866L320.216 214.397L376.953 314.095C378.79 317.299 381.353 320.027 384.435 322.062C389.604 325.449 395.908 326.645 401.959 325.385C408.01 324.126 413.313 320.514 416.701 315.345L416.992 314.9L477.509 222.553L432.134 194.777Z" fill="#00B612"/>
<path d="M356.124 193.661L345.452 173.539C345.218 173.097 344.893 172.709 344.501 172.399C344.108 172.089 343.654 171.864 343.17 171.739C342.685 171.614 342.18 171.591 341.686 171.672C341.193 171.753 340.721 171.936 340.302 172.209C339.543 172.737 339.007 173.528 338.798 174.428C338.589 175.329 338.722 176.275 339.171 177.083L341.459 181.397L345.017 189.189" fill="#E98862"/>
<path d="M505.457 201.47C528.129 200.401 529.083 181.158 529.083 181.158C529.083 181.158 540.317 181.884 547.784 182.895C560.01 184.549 568.075 188.694 574.494 195.112C580.464 201.084 584.099 207.543 580.253 248.786C577.468 278.646 579.427 344.335 579.427 344.335H442.601C442.601 344.335 434.396 258.239 433.252 244.796C431.069 219.134 422.13 204.669 434.625 191.45C443.685 181.863 467.077 181.158 476.493 181.16C476.646 181.16 474.582 202.926 505.457 201.47Z" fill="#00B612"/>
<path d="M434.049 240.505C434.043 240.417 434.003 240.334 433.936 240.276C433.87 240.218 433.783 240.188 433.695 240.193C433.607 240.199 433.525 240.239 433.466 240.306C433.408 240.372 433.378 240.459 433.384 240.547L436.166 284.988C436.171 285.068 436.205 285.144 436.261 285.201C436.317 285.258 436.392 285.293 436.471 285.299C436.487 285.3 436.503 285.3 436.519 285.299C436.562 285.296 436.605 285.285 436.644 285.266C436.683 285.247 436.718 285.22 436.747 285.187C436.776 285.154 436.798 285.116 436.813 285.075C436.827 285.033 436.833 284.99 436.83 284.946" fill="#0C0C0C"/>
<path d="M464.194 305.379L442.061 300.001C441.575 299.883 441.069 299.868 440.577 299.956C440.084 300.044 439.615 300.233 439.2 300.512C438.784 300.792 438.432 301.154 438.164 301.577C437.897 302 437.72 302.474 437.646 302.969C437.537 303.887 437.773 304.813 438.308 305.566C438.843 306.32 439.638 306.849 440.541 307.049L445.287 308.202L428.697 311.426C426.847 311.752 424.784 313.336 425.288 315.388C425.43 316.19 425.839 316.921 426.45 317.46C427.06 318 427.835 318.317 428.649 318.359C428.647 318.377 428.647 318.395 428.649 318.413C428.649 318.427 428.661 318.438 428.665 318.452L425.811 318.955C425.283 319.048 424.782 319.259 424.345 319.57C423.908 319.882 423.546 320.287 423.285 320.757C423.025 321.226 422.872 321.747 422.839 322.283C422.805 322.819 422.892 323.355 423.092 323.853C423.423 324.631 424.011 325.272 424.758 325.668C425.504 326.064 426.365 326.192 427.194 326.03L428.409 325.816C428.431 325.848 428.459 325.876 428.491 325.899C427.704 326.234 427.062 326.838 426.68 327.603C426.298 328.367 426.2 329.243 426.404 330.074C426.654 330.976 427.235 331.752 428.031 332.245C428.827 332.738 429.78 332.912 430.699 332.734L433.716 332.202C433.678 332.239 433.65 332.285 433.634 332.336C433.618 332.386 433.614 332.44 433.623 332.492C433.637 332.553 433.668 332.61 433.713 332.654C433.095 333.147 432.656 333.829 432.464 334.596C432.271 335.363 432.337 336.171 432.649 336.897C432.992 337.654 433.581 338.272 434.319 338.652C435.057 339.032 435.902 339.152 436.717 338.992L462.169 334.502C465.729 333.874 469.021 332.198 471.622 329.687C474.223 327.176 476.015 323.945 476.769 320.409C477.418 317.36 476.853 314.178 475.194 311.539C473.535 308.9 470.912 307.012 467.883 306.276L464.194 305.379Z" fill="#E98862"/>
<g opacity="0.2">
<path d="M445.085 315.249C445.1 315.335 445.08 315.423 445.03 315.495C444.981 315.566 444.905 315.615 444.819 315.632L429.039 318.677C428.996 318.686 428.952 318.685 428.909 318.677C428.867 318.668 428.826 318.651 428.79 318.626C428.754 318.602 428.723 318.57 428.699 318.534C428.675 318.497 428.658 318.457 428.65 318.414C428.642 318.371 428.642 318.327 428.651 318.284C428.659 318.241 428.676 318.201 428.701 318.164C428.725 318.128 428.757 318.097 428.793 318.073C428.83 318.049 428.871 318.033 428.913 318.024L444.694 314.978C444.737 314.97 444.781 314.97 444.824 314.979C444.867 314.988 444.908 315.005 444.944 315.03C444.98 315.055 445.011 315.086 445.035 315.123C445.059 315.16 445.075 315.201 445.083 315.244L445.085 315.249Z" fill="#0C0C0C"/>
</g>
<g opacity="0.2">
<path d="M446.623 322.172C446.638 322.258 446.618 322.346 446.568 322.417C446.519 322.489 446.443 322.538 446.358 322.554L428.747 325.953C428.704 325.962 428.659 325.961 428.617 325.952C428.574 325.943 428.533 325.926 428.497 325.901C428.461 325.876 428.43 325.845 428.406 325.808C428.382 325.771 428.366 325.73 428.358 325.687C428.344 325.601 428.364 325.512 428.413 325.44C428.463 325.368 428.538 325.317 428.624 325.298L446.234 321.899C446.278 321.891 446.322 321.891 446.365 321.9C446.407 321.909 446.448 321.926 446.484 321.951C446.52 321.976 446.551 322.007 446.575 322.044C446.599 322.081 446.616 322.122 446.623 322.165V322.172Z" fill="#0C0C0C"/>
</g>
<g opacity="0.2">
<path d="M448.327 329.66C448.341 329.746 448.321 329.834 448.271 329.905C448.222 329.977 448.146 330.026 448.061 330.042L434.013 332.754C433.97 332.762 433.926 332.762 433.883 332.753C433.84 332.744 433.8 332.727 433.763 332.703C433.727 332.678 433.696 332.647 433.672 332.611C433.648 332.574 433.631 332.533 433.623 332.49C433.615 332.448 433.615 332.403 433.624 332.361C433.632 332.318 433.65 332.277 433.674 332.241C433.698 332.205 433.73 332.174 433.766 332.15C433.803 332.126 433.844 332.109 433.886 332.101L447.934 329.389C447.977 329.381 448.021 329.381 448.064 329.39C448.107 329.399 448.148 329.416 448.184 329.441C448.221 329.465 448.252 329.497 448.276 329.534C448.299 329.571 448.316 329.612 448.324 329.655L448.327 329.66Z" fill="#0C0C0C"/>
</g>
<path d="M461.99 343.208L580.92 343.857C584.75 344.274 588.625 343.797 592.241 342.465C595.856 341.133 599.114 338.981 601.758 336.178C604.402 333.376 606.36 329.998 607.48 326.311C608.6 322.625 608.85 318.728 608.211 314.929L581.715 208.792C581.189 205.548 580.027 202.439 578.295 199.645C576.563 196.851 574.296 194.427 571.624 192.512C568.952 190.598 565.928 189.23 562.726 188.488C559.523 187.747 556.206 187.645 552.964 188.19C549.723 188.735 546.621 189.916 543.837 191.664C541.053 193.412 538.642 195.693 536.743 198.376C534.844 201.059 533.494 204.091 532.771 207.298C532.048 210.504 531.966 213.822 532.53 217.061L552.85 297.019L462.565 299.988L461.99 343.208Z" fill="#00B612"/>
<path d="M568.396 296.684C568.479 296.683 568.559 296.651 568.62 296.594C568.681 296.537 568.718 296.459 568.724 296.376C568.731 296.293 568.705 296.21 568.653 296.145C568.601 296.079 568.527 296.036 568.444 296.023L553.042 296.582C552.999 296.575 552.954 296.577 552.912 296.587C552.869 296.597 552.829 296.616 552.794 296.642C552.759 296.668 552.729 296.701 552.707 296.739C552.684 296.776 552.67 296.818 552.664 296.862C552.651 296.949 552.673 297.037 552.726 297.108C552.778 297.179 552.856 297.226 552.943 297.239L568.346 296.68C568.362 296.683 568.379 296.684 568.396 296.684Z" fill="#0C0C0C"/>
<path d="M577.46 344.335C577.549 344.341 577.635 344.311 577.702 344.253C577.768 344.195 577.809 344.112 577.814 344.024C577.82 343.936 577.791 343.849 577.732 343.783C577.674 343.716 577.592 343.676 577.504 343.67L462.686 342.954L463.19 300.393L552.935 297.239C552.986 297.246 553.039 297.24 553.088 297.223C553.137 297.206 553.182 297.177 553.218 297.14C553.254 297.103 553.281 297.057 553.296 297.007C553.312 296.958 553.315 296.905 553.306 296.854L543.519 248.793C543.513 248.75 543.497 248.708 543.474 248.671C543.451 248.634 543.421 248.601 543.385 248.576C543.35 248.55 543.309 248.532 543.266 248.523C543.224 248.513 543.179 248.513 543.136 248.52C543.049 248.535 542.972 248.584 542.921 248.655C542.87 248.727 542.849 248.817 542.864 248.903L552.573 296.518L462.937 299.687C462.893 299.681 462.848 299.684 462.805 299.696C462.763 299.707 462.722 299.727 462.688 299.755C462.653 299.782 462.624 299.817 462.602 299.855C462.581 299.894 462.567 299.937 462.563 299.981L461.987 343.207C461.978 343.294 462.003 343.38 462.056 343.449C462.11 343.517 462.188 343.562 462.275 343.573L577.414 344.332C577.43 344.334 577.445 344.335 577.46 344.335Z" fill="#0C0C0C"/>
<path d="M405.97 331.847L373.435 231.836C372.864 230.078 371.751 228.547 370.255 227.461C368.76 226.375 366.959 225.79 365.111 225.79H232.562C231.18 225.79 229.818 226.117 228.587 226.745C227.356 227.372 226.291 228.282 225.479 229.4C224.667 230.518 224.131 231.812 223.915 233.177C223.7 234.541 223.81 235.938 224.237 237.252L256.773 337.263C257.344 339.021 258.457 340.552 259.953 341.638C261.448 342.724 263.249 343.309 265.097 343.309H397.646C399.028 343.309 400.39 342.982 401.621 342.354C402.852 341.727 403.917 340.817 404.729 339.699C405.541 338.581 406.077 337.287 406.292 335.922C406.508 334.557 406.398 333.161 405.97 331.847Z" fill="#292A2E"/>
<path d="M468.159 335.2H379.431C377.22 335.2 375.428 336.992 375.428 339.203V339.305C375.428 341.516 377.22 343.309 379.431 343.309H468.159C470.37 343.309 472.162 341.516 472.162 339.305V339.203C472.162 336.992 470.37 335.2 468.159 335.2Z" fill="#292A2E"/>
<path d="M313.109 301.335C320.787 301.335 327.011 295.111 327.011 287.433C327.011 279.755 320.787 273.531 313.109 273.531C305.431 273.531 299.207 279.755 299.207 287.433C299.207 295.111 305.431 301.335 313.109 301.335Z" fill="white"/>
<path d="M529.773 132.309C529.244 132.309 528.737 132.099 528.363 131.725C527.989 131.351 527.778 130.843 527.778 130.314V107.588C527.778 96.0234 524.577 86.8601 518.521 81.0891C512.782 75.6187 504.545 73.103 494.049 73.6064C493.786 73.6204 493.524 73.5824 493.276 73.4946C493.028 73.4067 492.8 73.2708 492.605 73.0945C492.41 72.9183 492.252 72.7053 492.139 72.4676C492.027 72.23 491.962 71.9725 491.95 71.71C491.937 71.4474 491.977 71.1849 492.066 70.9376C492.155 70.6903 492.292 70.463 492.469 70.2689C492.647 70.0748 492.861 69.9176 493.099 69.8064C493.337 69.6952 493.595 69.6322 493.857 69.621C505.489 69.059 514.716 71.9485 521.277 78.1997C528.142 84.7427 531.771 94.9048 531.771 107.587V130.313C531.771 130.576 531.72 130.835 531.619 131.078C531.519 131.32 531.372 131.54 531.186 131.726C531.001 131.911 530.78 132.058 530.538 132.158C530.295 132.258 530.036 132.31 529.773 132.309Z" fill="#00B612"/>
<path d="M526.792 149.739C535.162 149.739 541.947 142.954 541.947 134.584C541.947 126.213 535.162 119.428 526.792 119.428C518.421 119.428 511.636 126.213 511.636 134.584C511.636 142.954 518.421 149.739 526.792 149.739Z" fill="#00B612"/>
<path d="M527.377 145.937C527.271 145.86 527.15 145.805 527.023 145.774C526.896 145.744 526.763 145.739 526.634 145.76C526.505 145.781 526.381 145.827 526.269 145.895C526.157 145.964 526.06 146.054 525.984 146.16L524.824 147.762C523.403 149.721 521.539 151.315 519.384 152.416C517.229 153.516 514.844 154.092 512.424 154.095H493.972V153.705C493.972 153.176 493.762 152.668 493.388 152.294C493.014 151.92 492.507 151.71 491.977 151.71H485.733C485.204 151.71 484.696 151.92 484.322 152.294C483.948 152.668 483.738 153.176 483.738 153.705V156.625C483.738 157.155 483.948 157.662 484.322 158.036C484.696 158.41 485.204 158.62 485.733 158.62H491.977C492.507 158.62 493.014 158.41 493.388 158.036C493.762 157.662 493.972 157.155 493.972 156.625V156.093H512.424C515.159 156.09 517.855 155.439 520.291 154.195C522.727 152.951 524.834 151.149 526.44 148.935L527.6 147.333C527.678 147.227 527.733 147.106 527.764 146.979C527.794 146.851 527.8 146.718 527.779 146.588C527.758 146.459 527.712 146.334 527.643 146.222C527.574 146.111 527.483 146.013 527.377 145.937Z" fill="#00B612"/>
<path d="M530.428 149.739C538.798 149.739 545.584 142.954 545.584 134.584C545.584 126.213 538.798 119.428 530.428 119.428C522.058 119.428 515.272 126.213 515.272 134.584C515.272 142.954 522.058 149.739 530.428 149.739Z" fill="#00B612"/>
<path opacity="0.3" d="M530.428 149.739C538.798 149.739 545.584 142.954 545.584 134.584C545.584 126.213 538.798 119.428 530.428 119.428C522.058 119.428 515.272 126.213 515.272 134.584C515.272 142.954 522.058 149.739 530.428 149.739Z" fill="white"/>
<path d="M242.582 345H610.335C610.512 345 610.681 344.93 610.805 344.805C610.93 344.681 611 344.511 611 344.335C611 344.159 610.93 343.989 610.805 343.865C610.681 343.74 610.512 343.67 610.335 343.67H242.582C242.406 343.67 242.237 343.74 242.112 343.865C241.988 343.989 241.917 344.159 241.917 344.335C241.917 344.511 241.988 344.681 242.112 344.805C242.237 344.93 242.406 345 242.582 345Z" fill="#292A2E"/>
</svg>
