<svg width="654" height="588" viewBox="0 0 654 588" fill="none" xmlns="http://www.w3.org/2000/svg">
<path d="M326.6 588C506.976 588 653.199 503.577 653.199 399.436C653.199 295.296 506.976 210.873 326.6 210.873C146.224 210.873 0 295.296 0 399.436C0 503.577 146.224 588 326.6 588Z" fill="#F5F5F5"/>
<path d="M562.044 432.907C561.986 432.782 561.917 432.663 561.838 432.55C561.778 432.474 561.714 432.4 561.646 432.331C561.59 432.235 561.521 432.147 561.441 432.07L561.194 431.837C560.921 431.605 560.627 431.398 560.316 431.22L254.97 254.942C253.442 254.175 251.757 253.776 250.047 253.776C248.338 253.776 246.652 254.175 245.125 254.942L86.2332 346.427C86.0323 346.536 85.8398 346.66 85.6573 346.797C85.6573 346.797 85.5065 346.893 85.4516 346.948C85.1299 347.213 84.8522 347.528 84.6289 347.88C84.5756 347.953 84.5297 348.031 84.4918 348.113C84.4222 348.234 84.367 348.363 84.3273 348.497C84.2994 348.597 84.2765 348.697 84.2587 348.799C84.2393 348.963 84.2393 349.129 84.2587 349.293C84.2516 349.407 84.2516 349.521 84.2587 349.635C84.2826 349.765 84.3147 349.893 84.3547 350.019C84.3986 350.147 84.4537 350.271 84.5192 350.39C84.9148 351.11 85.51 351.7 86.2332 352.09L391.593 528.354C392.504 528.848 393.492 529.186 394.514 529.355C395.176 529.459 395.845 529.514 396.516 529.52C397.177 529.518 397.837 529.467 398.49 529.369C398.708 529.342 398.923 529.301 399.135 529.245C399.743 529.104 400.336 528.902 400.904 528.642C401.096 528.56 401.26 528.45 401.438 528.354L560.316 436.883C562.181 435.814 562.702 434.278 562.044 432.907Z" fill="#E0E0E0"/>
<path d="M542.56 385.725C580.068 385.725 610.474 368.167 610.474 346.509C610.474 324.851 580.068 307.293 542.56 307.293C505.052 307.293 474.646 324.851 474.646 346.509C474.646 368.167 505.052 385.725 542.56 385.725Z" fill="#E0E0E0"/>
<path d="M548.799 412.696C548.741 412.568 548.667 412.448 548.58 412.339C548.524 412.263 548.465 412.19 548.401 412.12C548.341 412.023 548.267 411.936 548.182 411.859L547.949 411.64C547.675 411.399 547.376 411.187 547.058 411.009L250.075 239.517C248.548 238.75 246.862 238.35 245.153 238.35C243.443 238.35 241.758 238.75 240.23 239.517L94.5568 323.583L93.9672 323.953L93.7753 324.118C93.4505 324.375 93.1722 324.686 92.9526 325.037C92.816 325.228 92.714 325.441 92.6509 325.667C92.6431 325.768 92.6431 325.869 92.6509 325.969C92.6307 326.133 92.6307 326.299 92.6509 326.463C92.6441 326.577 92.6441 326.691 92.6509 326.805C92.6764 326.935 92.7085 327.063 92.7469 327.189C92.7889 327.316 92.8392 327.44 92.8977 327.56C93.3056 328.284 93.9154 328.875 94.6528 329.26L391.594 500.766C392.503 501.262 393.491 501.596 394.515 501.753C395.176 501.868 395.845 501.928 396.517 501.932C397.178 501.932 397.839 501.877 398.491 501.767C398.708 501.741 398.924 501.699 399.135 501.644C399.746 501.509 400.339 501.307 400.904 501.04C401.096 500.958 401.261 500.862 401.439 500.766L547.058 416.686C548.991 415.603 549.512 414.067 548.799 412.696ZM516.81 406.608L507.499 411.996L383.422 483.572C383.101 483.761 382.766 483.926 382.421 484.065C381.408 484.486 380.323 484.703 379.226 484.703C378.129 484.703 377.044 484.486 376.031 484.065C375.686 483.926 375.351 483.761 375.03 483.572L139.449 347.565L128.041 340.997C127.642 340.772 127.281 340.485 126.971 340.147C125.792 338.858 126.162 337.213 128.041 336.116L261.374 259.138C262.893 258.105 264.709 257.6 266.543 257.698C266.982 257.753 267.411 257.868 267.818 258.041C268.047 258.127 268.267 258.232 268.476 258.357L516.81 401.726C517.236 401.975 517.59 402.331 517.837 402.76C518.083 403.188 518.212 403.673 518.212 404.167C518.212 404.661 518.083 405.146 517.837 405.575C517.59 406.003 517.236 406.359 516.81 406.608Z" fill="#455A64"/>
<path d="M93.9804 323.967C92.7117 324.933 91.6674 326.163 90.9194 327.571C90.1714 328.98 89.7375 330.534 89.6475 332.126V338.625C89.7369 340.336 90.2294 342.002 91.0849 343.486C91.9403 344.971 93.1345 346.232 94.57 347.168L391.552 518.646C392.67 519.26 393.902 519.638 395.172 519.757C395.611 519.757 396.036 519.826 396.543 519.839V501.932C395.873 501.919 395.205 501.864 394.541 501.767C393.512 501.6 392.52 501.257 391.607 500.753L94.5563 329.26C92.047 327.82 91.8413 325.53 93.9804 323.967Z" fill="#37474F"/>
<path d="M470.135 447.62C467.402 446.267 464.394 445.563 461.345 445.563C458.297 445.563 455.289 446.267 452.556 447.62C451.489 448.182 450.583 449.008 449.924 450.019C448.347 452.762 451.295 454.818 452.556 455.586C455.289 456.939 458.297 457.642 461.345 457.642C464.394 457.642 467.402 456.939 470.135 455.586C471.194 455.012 472.097 454.188 472.767 453.187C474.344 450.444 471.437 448.387 470.135 447.62Z" fill="#098D16"/>
<path d="M179.281 289.263C179.559 289.157 179.799 288.969 179.967 288.724C180.136 288.48 180.227 288.189 180.227 287.892C180.227 287.594 180.136 287.304 179.967 287.059C179.799 286.814 179.559 286.626 179.281 286.521C178.536 286.142 177.711 285.945 176.875 285.945C176.039 285.945 175.214 286.142 174.469 286.521C174.191 286.626 173.951 286.814 173.783 287.059C173.614 287.304 173.523 287.594 173.523 287.892C173.523 288.189 173.614 288.48 173.783 288.724C173.951 288.969 174.191 289.157 174.469 289.263C175.214 289.641 176.039 289.838 176.875 289.838C177.711 289.838 178.536 289.641 179.281 289.263Z" fill="#263238"/>
<path d="M171.726 302.426C171.958 302.314 172.154 302.139 172.29 301.92C172.427 301.702 172.5 301.45 172.5 301.192C172.5 300.935 172.427 300.682 172.29 300.464C172.154 300.246 171.958 300.07 171.726 299.958C171.062 299.626 170.33 299.453 169.587 299.453C168.845 299.453 168.113 299.626 167.448 299.958C167.216 300.07 167.021 300.246 166.884 300.464C166.747 300.682 166.675 300.935 166.675 301.192C166.675 301.45 166.747 301.702 166.884 301.92C167.021 302.139 167.216 302.314 167.448 302.426C168.111 302.764 168.844 302.941 169.587 302.941C170.331 302.941 171.064 302.764 171.726 302.426Z" fill="#263238"/>
<path d="M178.952 298.354L202.866 284.546C204.237 283.792 204.237 282.599 203.003 281.886C202.283 281.54 201.493 281.368 200.694 281.384C199.896 281.401 199.113 281.606 198.409 281.982L174.496 295.776C173.193 296.544 173.125 297.723 174.359 298.436C175.077 298.785 175.867 298.959 176.665 298.945C177.464 298.93 178.247 298.728 178.952 298.354Z" fill="#263238"/>
<path d="M547.715 411.448C549.745 413.025 549.525 415.26 547.057 416.686L401.425 500.766C399.913 501.575 398.217 501.976 396.502 501.932V519.826C398.213 519.859 399.903 519.453 401.411 518.647L547.043 434.58C548.479 433.648 549.673 432.389 550.528 430.906C551.384 429.424 551.877 427.76 551.966 426.051V419.538C551.876 417.964 551.45 416.428 550.717 415.033C549.984 413.637 548.96 412.415 547.715 411.448Z" fill="#263238"/>
<path d="M164.02 374.399C164.746 374.855 165.354 375.474 165.797 376.208C166.24 376.941 166.505 377.768 166.571 378.622C166.601 378.911 166.55 379.202 166.424 379.464C166.299 379.726 166.102 379.947 165.858 380.103C165.556 380.281 164.404 380.967 164.075 381.145C163.777 381.272 163.451 381.32 163.129 381.284C162.807 381.248 162.5 381.129 162.238 380.94L129.124 361.743C128.401 361.286 127.795 360.666 127.355 359.932C126.914 359.199 126.651 358.373 126.587 357.52C126.563 357.243 126.61 356.964 126.722 356.71C126.835 356.456 127.01 356.235 127.232 356.066L129.069 354.997C129.367 354.87 129.693 354.822 130.015 354.858C130.337 354.894 130.644 355.013 130.906 355.203L164.02 374.399Z" fill="#455A64"/>
<path d="M162.237 375.4L129.124 356.286C127.752 355.477 126.587 356.053 126.587 357.575C126.651 358.428 126.914 359.254 127.354 359.987C127.795 360.72 128.401 361.34 129.124 361.798L162.237 380.994C163.609 381.803 164.788 381.227 164.788 379.705C164.735 378.837 164.476 377.993 164.032 377.245C163.589 376.496 162.974 375.864 162.237 375.4Z" fill="#263238"/>
<path d="M119.69 348.799C120.417 349.256 121.027 349.878 121.47 350.614C121.913 351.35 122.177 352.18 122.241 353.036C122.268 353.323 122.217 353.612 122.094 353.873C121.971 354.133 121.78 354.356 121.541 354.517C121.226 354.682 120.074 355.381 119.759 355.559C119.46 355.684 119.133 355.73 118.811 355.691C118.489 355.653 118.183 355.532 117.921 355.34L102.304 346.331C101.581 345.874 100.975 345.254 100.535 344.52C100.094 343.787 99.8312 342.961 99.767 342.108C99.7361 341.83 99.7794 341.549 99.8927 341.294C100.006 341.039 100.185 340.818 100.411 340.655C100.713 340.449 101.92 339.763 102.249 339.585C102.546 339.454 102.873 339.404 103.195 339.44C103.518 339.476 103.825 339.597 104.086 339.791L119.69 348.799Z" fill="#455A64"/>
<path d="M117.921 349.828L102.303 340.819C100.932 340.01 99.7666 340.586 99.7666 342.108C99.8308 342.961 100.094 343.787 100.534 344.52C100.975 345.254 101.58 345.874 102.303 346.331L117.921 355.34C119.292 356.149 120.458 355.573 120.458 354.051C120.393 353.198 120.131 352.372 119.69 351.638C119.25 350.905 118.644 350.285 117.921 349.828Z" fill="#263238"/>
<path d="M516.809 406.539L507.499 411.914L383.422 483.503C383.098 483.687 382.764 483.852 382.421 483.997C381.408 484.418 380.322 484.635 379.226 484.635C378.129 484.635 377.044 484.418 376.031 483.997C375.688 483.852 375.354 483.687 375.03 483.503L139.449 347.497L128.054 340.915C127.653 340.699 127.292 340.416 126.985 340.079C125.806 338.79 126.176 337.131 128.054 336.034L261.387 259.07C262.915 258.061 264.73 257.58 266.557 257.699C266.996 257.753 267.425 257.868 267.832 258.041C268.06 258.127 268.28 258.232 268.49 258.357L516.809 401.727C517.221 401.979 517.56 402.333 517.796 402.754C518.031 403.176 518.155 403.65 518.155 404.133C518.155 404.616 518.031 405.09 517.796 405.511C517.56 405.933 517.221 406.287 516.809 406.539Z" fill="#098D16"/>
<path opacity="0.8" d="M516.809 406.539L507.499 411.914L383.422 483.503C383.098 483.687 382.764 483.852 382.421 483.997C381.408 484.418 380.322 484.635 379.226 484.635C378.129 484.635 377.044 484.418 376.031 483.997C375.688 483.852 375.354 483.687 375.03 483.503L139.449 347.497L128.054 340.915C127.653 340.699 127.292 340.416 126.985 340.079C125.806 338.79 126.176 337.131 128.054 336.034L261.387 259.07C262.915 258.061 264.73 257.58 266.557 257.699C266.996 257.753 267.425 257.868 267.832 258.041C268.06 258.127 268.28 258.232 268.49 258.357L516.809 401.727C517.221 401.979 517.56 402.333 517.796 402.754C518.031 403.176 518.155 403.65 518.155 404.133C518.155 404.616 518.031 405.09 517.796 405.511C517.56 405.933 517.221 406.287 516.809 406.539Z" fill="white"/>
<path d="M156.204 330.851C156.137 330.838 156.072 330.815 156.012 330.782L155.368 330.398L153.791 331.317C153.75 331.344 153.703 331.358 153.654 331.358C153.605 331.358 153.557 331.344 153.517 331.317L153.284 331.193L153.174 331.111C153.171 331.079 153.171 331.047 153.174 331.015L152.516 328.698C152.511 328.666 152.511 328.634 152.516 328.602C152.536 328.568 152.564 328.54 152.598 328.52L152.818 328.396C152.885 328.377 152.956 328.377 153.023 328.396C153.096 328.404 153.166 328.427 153.229 328.465L155.505 329.836L155.862 329.644C155.919 329.622 155.982 329.622 156.04 329.644C156.113 329.648 156.184 329.672 156.245 329.712L156.396 329.795C156.465 329.795 156.506 329.877 156.506 329.904C156.506 329.932 156.506 329.973 156.41 330.014L156.067 330.22L156.725 330.59C156.772 330.615 156.81 330.653 156.835 330.7C156.835 330.7 156.835 330.768 156.725 330.809L156.465 330.974C156.368 330.959 156.277 330.916 156.204 330.851ZM154.833 330.028L153.215 329.082L153.695 330.686L154.833 330.028Z" fill="#455A64"/>
<path d="M157.685 329.534C156.988 329.493 156.311 329.286 155.71 328.931C155.066 328.547 154.709 328.177 154.668 327.793C154.627 327.409 154.888 327.052 155.436 326.723C155.665 326.599 155.903 326.493 156.149 326.408C156.386 326.334 156.629 326.284 156.876 326.257C156.876 326.257 156.958 326.257 156.986 326.257C157.013 326.257 156.986 326.257 156.986 326.257L157.123 326.518H157.027C156.665 326.556 156.315 326.668 155.998 326.847C155.628 327.066 155.45 327.313 155.477 327.587C155.505 327.861 155.779 328.122 156.286 328.41C156.7 328.673 157.17 328.837 157.657 328.89C158.083 328.911 158.506 328.811 158.878 328.602L159.234 328.355C159.315 328.289 159.384 328.21 159.44 328.122L158.37 327.505L157.712 327.875C157.651 327.9 157.582 327.9 157.52 327.875C157.452 327.869 157.386 327.845 157.328 327.807L157.178 327.724C157.178 327.724 157.068 327.642 157.068 327.615C157.068 327.587 157.068 327.546 157.164 327.505L158.206 326.902C158.278 326.884 158.353 326.884 158.425 326.902C158.51 326.904 158.591 326.932 158.658 326.984L160.18 327.861C160.224 327.878 160.262 327.907 160.29 327.944C160.29 327.944 160.29 327.944 160.29 328.026C160.112 328.43 159.789 328.753 159.385 328.931C158.885 329.286 158.297 329.495 157.685 329.534Z" fill="#455A64"/>
<path d="M170.725 321.718C171.232 322.02 171.232 322.486 170.725 322.774C170.444 322.923 170.131 323.001 169.813 323.001C169.495 323.001 169.182 322.923 168.901 322.774C168.394 322.486 168.394 322.02 168.901 321.718C169.184 321.576 169.497 321.502 169.813 321.502C170.13 321.502 170.442 321.576 170.725 321.718Z" fill="#455A64"/>
<path d="M167.407 320.855C166.488 321.389 166.2 322.157 166.557 322.829C166.622 322.908 166.708 322.969 166.804 323.005C166.9 323.041 167.004 323.051 167.105 323.035C167.407 323.035 167.626 322.829 167.53 322.664C167.27 322.185 167.53 321.65 168.12 321.293C168.857 320.908 169.704 320.787 170.52 320.951C170.821 320.951 171.123 320.95 171.164 320.704C171.164 320.553 171.041 320.429 170.808 320.375C169.652 320.166 168.46 320.335 167.407 320.855Z" fill="#455A64"/>
<path d="M165.94 320.018C164.569 320.8 164.075 321.911 164.473 322.939C164.473 323.09 164.761 323.186 165.021 323.172C165.323 323.172 165.515 322.98 165.446 322.815C165.131 321.979 165.528 321.074 166.639 320.43C167.907 319.782 169.342 319.538 170.753 319.73C171.054 319.73 171.342 319.73 171.37 319.484C171.37 319.333 171.219 319.196 170.958 319.168C169.238 318.921 167.483 319.219 165.94 320.018Z" fill="#455A64"/>
<path d="M192.911 306.965C192.862 306.978 192.81 306.978 192.76 306.965C192.76 306.965 192.76 306.965 192.76 306.869L193.034 305.497C193.034 305.497 193.034 305.429 193.034 305.401L193.117 305.319L193.597 305.045C193.646 305.031 193.698 305.031 193.748 305.045C193.801 305.029 193.858 305.029 193.912 305.045L197.834 307.307C197.841 307.32 197.845 307.334 197.845 307.349C197.845 307.363 197.841 307.377 197.834 307.39C197.842 307.404 197.846 307.421 197.846 307.438C197.846 307.455 197.842 307.471 197.834 307.486L197.34 307.774C197.286 307.788 197.229 307.788 197.175 307.774C197.122 307.79 197.065 307.79 197.011 307.774L194.022 306.046L193.857 306.841C193.857 306.841 193.857 306.841 193.775 306.923C193.716 306.938 193.655 306.938 193.597 306.923L192.911 306.965Z" fill="#455A64"/>
<path d="M195.982 305.196C195.929 305.212 195.871 305.212 195.818 305.196C195.811 305.181 195.808 305.164 195.808 305.148C195.808 305.131 195.811 305.115 195.818 305.1L196.106 303.729C196.1 303.697 196.1 303.664 196.106 303.633L196.174 303.55L196.654 303.276C196.708 303.26 196.765 303.26 196.819 303.276C196.873 303.262 196.929 303.262 196.983 303.276L200.891 305.539C200.891 305.539 200.891 305.539 200.891 305.635C200.897 305.647 200.9 305.661 200.9 305.676C200.9 305.69 200.897 305.704 200.891 305.717L200.398 306.005C200.344 306.021 200.287 306.021 200.233 306.005H200.068L197.079 304.277L196.901 305.168C196.879 305.206 196.845 305.235 196.805 305.251C196.751 305.266 196.694 305.266 196.641 305.251L195.982 305.196Z" fill="#455A64"/>
<path d="M199.821 302.728C199.875 302.715 199.932 302.715 199.986 302.728C200.04 302.712 200.097 302.712 200.15 302.728L200.754 303.07C200.761 303.083 200.765 303.097 200.765 303.112C200.765 303.126 200.761 303.14 200.754 303.153C200.761 303.168 200.765 303.184 200.765 303.201C200.765 303.217 200.761 303.234 200.754 303.249L200.192 303.578H200.027C199.973 303.594 199.916 303.594 199.862 303.578L199.259 303.235C199.252 303.22 199.248 303.204 199.248 303.187C199.248 303.17 199.252 303.154 199.259 303.139C199.253 303.124 199.249 303.107 199.249 303.091C199.249 303.074 199.253 303.058 199.259 303.043L199.821 302.728ZM201.947 303.948C201.997 303.922 202.054 303.908 202.111 303.908C202.168 303.908 202.225 303.922 202.276 303.948L202.865 304.291C202.865 304.291 202.934 304.291 202.934 304.387C202.93 304.407 202.922 304.426 202.91 304.442C202.899 304.459 202.883 304.473 202.865 304.483L202.303 304.798C202.253 304.826 202.196 304.84 202.139 304.84C202.081 304.84 202.024 304.826 201.974 304.798L201.384 304.455C201.384 304.455 201.316 304.455 201.316 304.359C201.318 304.34 201.325 304.322 201.338 304.308C201.35 304.293 201.366 304.282 201.384 304.277L201.947 303.948Z" fill="#455A64"/>
<path d="M206.101 302.728C206.051 302.754 205.994 302.768 205.937 302.768C205.88 302.768 205.823 302.754 205.772 302.728L205.046 302.316L203.167 303.4H203.002C202.949 303.415 202.892 303.415 202.838 303.4L202.413 303.153C202.344 303.153 202.317 303.084 202.303 303.043C202.289 302.998 202.289 302.951 202.303 302.906L201.837 300.506C201.825 300.462 201.828 300.416 201.845 300.373C201.862 300.331 201.893 300.296 201.933 300.273L202.399 299.999H202.564H202.715L205.142 301.37L205.663 301.069H205.827H205.992L206.417 301.329C206.435 301.334 206.451 301.345 206.464 301.36C206.476 301.374 206.483 301.392 206.485 301.411C206.485 301.411 206.485 301.48 206.417 301.507L205.896 301.809L206.636 302.234C206.636 302.234 206.705 302.234 206.636 302.33C206.643 302.345 206.647 302.361 206.647 302.378C206.647 302.395 206.643 302.411 206.636 302.426L206.101 302.728ZM204.278 301.878L202.989 301.123L203.249 302.495L204.278 301.878Z" fill="#455A64"/>
<path d="M204.456 298.916C204.444 298.885 204.444 298.851 204.456 298.82C204.456 298.82 204.456 298.82 204.456 298.724L206.732 297.353C206.783 297.325 206.839 297.311 206.897 297.311C206.954 297.311 207.011 297.325 207.061 297.353L207.486 297.599C207.486 297.599 207.555 297.599 207.555 297.695C207.555 297.791 207.555 297.764 207.486 297.791L205.786 298.765L206.499 299.259C206.567 299.167 206.651 299.089 206.746 299.025L206.993 298.861C207.222 298.732 207.466 298.631 207.719 298.559C207.968 298.479 208.226 298.433 208.487 298.422C208.742 298.388 209 298.388 209.255 298.422C209.509 298.479 209.754 298.571 209.982 298.696C210.198 298.802 210.382 298.963 210.517 299.163C210.611 299.293 210.65 299.456 210.626 299.615C210.602 299.784 210.52 299.939 210.393 300.054C210.227 300.211 210.043 300.349 209.845 300.465C209.587 300.61 209.316 300.729 209.036 300.822C208.789 300.891 208.537 300.937 208.282 300.959C208.053 300.98 207.824 300.98 207.596 300.959C207.401 300.92 207.212 300.855 207.034 300.767C207.034 300.767 206.965 300.767 206.965 300.671C206.965 300.575 206.965 300.602 207.034 300.575L207.527 300.287H207.678H207.843C207.954 300.322 208.069 300.345 208.186 300.355H208.515L208.816 300.26L209.091 300.122C209.324 299.985 209.447 299.848 209.461 299.684C209.474 299.519 209.378 299.396 209.159 299.272C208.959 299.16 208.729 299.112 208.501 299.135C208.236 299.14 207.977 299.211 207.747 299.341C207.655 299.393 207.568 299.453 207.486 299.519C207.445 299.561 207.408 299.607 207.377 299.656C207.384 299.692 207.384 299.73 207.377 299.766C207.35 299.808 207.312 299.841 207.267 299.862L206.705 300.191H206.54H206.389L204.456 298.916Z" fill="#455A64"/>
<path d="M139.284 341.175L138.022 340.449L139.695 339.475L140.957 340.202L139.284 341.175Z" fill="#455A64"/>
<path d="M141.807 339.722L139.284 338.268L140.957 337.295L143.48 338.748L141.807 339.722Z" fill="#455A64"/>
<path d="M144.33 338.269L140.545 336.075L142.218 335.115L146.016 337.295L144.33 338.269Z" fill="#455A64"/>
<path d="M146.853 336.815L141.807 333.894L143.494 332.921L148.526 335.842L146.853 336.815Z" fill="#455A64"/>
<path d="M260.907 266.227C260.571 266.187 260.229 266.239 259.92 266.378L253.626 269.998C253.215 270.231 253.325 270.67 253.859 270.985L256.163 272.356C256.506 272.544 256.884 272.656 257.274 272.685C257.437 272.706 257.603 272.706 257.767 272.685C257.939 272.671 258.106 272.624 258.261 272.548L264.555 268.928C264.952 268.681 264.856 268.256 264.308 267.941L262.018 266.57C261.676 266.378 261.298 266.261 260.907 266.227ZM257.205 272.397C257.039 272.38 256.879 272.323 256.739 272.233L254.435 270.862C254.038 270.629 253.955 270.286 254.257 270.107L260.551 266.488C260.632 266.444 260.72 266.416 260.811 266.405H260.962C261.133 266.422 261.297 266.479 261.442 266.57L263.732 267.941C264.129 268.174 264.212 268.517 263.924 268.681L257.63 272.315C257.498 272.378 257.351 272.406 257.205 272.397Z" fill="#455A64"/>
<path d="M255.847 269.71L258.59 271.273L257.603 271.849C257.491 271.882 257.372 271.882 257.26 271.849L255.244 270.683C254.956 270.519 254.888 270.258 255.107 270.121L255.847 269.71Z" fill="#455A64"/>
<path d="M256.314 269.449L257.493 268.764L260.208 270.327L259.015 271.012L256.314 269.449Z" fill="#455A64"/>
<path d="M257.959 268.503L259.124 267.818L261.853 269.394L260.674 270.08L257.959 268.503Z" fill="#455A64"/>
<path d="M260.948 266.981L262.909 268.119C263.266 268.325 263.197 268.627 262.703 268.901L262.306 269.134L259.563 267.557L260.51 267.022C260.576 266.986 260.649 266.964 260.725 266.957C260.8 266.95 260.876 266.958 260.948 266.981Z" fill="#455A64"/>
<path d="M262.265 266.419C262.679 266.377 263.094 266.489 263.43 266.734L263.855 266.981C264.321 267.255 264.582 267.557 264.404 267.667L264.116 267.859L261.949 266.611L262.265 266.419Z" fill="#455A64"/>
<path d="M244.878 276.812L249.76 272.575L252.338 276.236L248.965 275.318L244.878 276.812Z" fill="#455A64"/>
<path d="M348.799 454.996V456.203C348.854 457.245 349.155 458.259 349.677 459.162C350.199 460.065 350.927 460.832 351.802 461.4L375.332 474.974C376.262 475.448 377.291 475.694 378.334 475.694C379.378 475.694 380.407 475.448 381.337 474.974L497.297 407.993C498.172 407.421 498.9 406.651 499.421 405.746C499.943 404.841 500.244 403.825 500.3 402.782V401.589C500.244 400.546 499.943 399.53 499.421 398.625C498.9 397.72 498.172 396.95 497.297 396.379L473.768 382.804C472.838 382.331 471.809 382.084 470.765 382.084C469.721 382.084 468.693 382.331 467.762 382.804L351.802 449.8C350.929 450.37 350.203 451.137 349.681 452.04C349.16 452.943 348.857 453.955 348.799 454.996Z" fill="#098D16"/>
<path opacity="0.15" d="M497.64 396.653C498.888 397.599 498.751 398.984 497.243 399.848L381.283 466.843C380.357 467.33 379.325 467.58 378.28 467.57V475.687C379.33 475.714 380.369 475.468 381.296 474.974L497.243 407.993C498.115 407.419 498.841 406.648 499.363 405.744C499.884 404.839 500.186 403.825 500.246 402.782V401.589C500.193 400.627 499.933 399.688 499.483 398.836C499.034 397.984 498.405 397.239 497.64 396.653Z" fill="black"/>
<path opacity="0.3" d="M351.295 450.115C350.549 450.702 349.936 451.441 349.497 452.282C349.057 453.124 348.801 454.049 348.745 454.996V456.203C348.8 457.246 349.102 458.261 349.627 459.165C350.151 460.068 350.883 460.834 351.761 461.4L375.277 474.974C376.199 475.47 377.234 475.715 378.28 475.687V467.57C377.234 467.582 376.202 467.332 375.277 466.843L351.748 453.269C350.253 452.419 350.171 451.075 351.295 450.115Z" fill="black"/>
<path d="M386.109 441.559C386.292 441.452 386.5 441.395 386.713 441.394C386.893 441.4 387.072 441.423 387.247 441.463L399.588 444.918L399.862 445.014C399.898 445.032 399.929 445.059 399.951 445.093C399.972 445.127 399.985 445.166 399.986 445.206C399.986 445.206 399.986 445.33 399.862 445.384L398.025 446.44C397.864 446.541 397.68 446.598 397.49 446.605C397.359 446.629 397.224 446.629 397.092 446.605L395.474 446.139L391.608 448.374L392.417 449.306C392.473 449.37 392.503 449.454 392.499 449.539C392.499 449.635 392.403 449.731 392.211 449.841L390.374 450.897C390.279 450.954 390.169 450.983 390.058 450.979C389.943 450.983 389.829 450.954 389.729 450.897C389.666 450.861 389.613 450.809 389.578 450.746L383.573 443.616C383.506 443.529 383.468 443.423 383.463 443.314C383.463 443.191 383.559 443.081 383.751 442.971L386.109 441.559ZM390.113 446.591L392.472 445.22L387.796 443.849L390.113 446.591Z" fill="white"/>
<path d="M395.419 436.184C396.092 435.797 396.811 435.498 397.558 435.293C398.298 435.098 399.057 434.983 399.821 434.95C400.572 434.921 401.323 434.99 402.056 435.155C402.761 435.303 403.443 435.543 404.085 435.869L404.647 436.184L405.141 436.472L405.621 436.746L406.142 437.061C406.646 437.359 407.081 437.761 407.417 438.241C407.669 438.612 407.794 439.054 407.774 439.502C407.715 439.984 407.514 440.437 407.198 440.805C406.77 441.302 406.254 441.715 405.676 442.025L401.754 444.288C401.634 444.358 401.496 444.391 401.357 444.384C401.222 444.391 401.088 444.357 400.973 444.288L391.566 438.871C391.457 438.803 391.402 438.734 391.402 438.638C391.405 438.59 391.422 438.543 391.451 438.504C391.48 438.465 391.52 438.435 391.566 438.419L395.419 436.184ZM401.329 437.391C400.76 437.093 400.122 436.953 399.481 436.984C398.84 437.015 398.219 437.217 397.682 437.569L396.201 438.433L401.686 441.627L403.235 440.722C404.455 440.023 404.538 439.351 403.468 438.652L402.906 438.309L402.385 438.008L401.878 437.72L401.329 437.391Z" fill="white"/>
<path d="M405.936 430.11C406.608 429.723 407.327 429.424 408.075 429.218C408.819 429.023 409.582 428.908 410.351 428.876C411.097 428.854 411.843 428.923 412.572 429.081C413.278 429.225 413.961 429.465 414.602 429.794L415.178 430.11L415.658 430.398L416.138 430.672L416.672 430.987C417.17 431.289 417.599 431.691 417.934 432.166C418.191 432.535 418.316 432.979 418.29 433.428C418.244 433.91 418.047 434.366 417.728 434.731C417.298 435.225 416.782 435.638 416.206 435.951L412.271 438.213C412.155 438.282 412.021 438.315 411.887 438.309C411.748 438.317 411.61 438.283 411.489 438.213L402.083 432.797C402.038 432.775 402 432.742 401.971 432.701C401.943 432.661 401.925 432.613 401.918 432.564C401.923 432.516 401.94 432.47 401.97 432.431C401.999 432.392 402.038 432.362 402.083 432.345L405.936 430.11ZM411.846 431.316C411.277 431.019 410.639 430.878 409.998 430.91C409.357 430.941 408.736 431.143 408.198 431.495L406.718 432.358L412.202 435.553L413.765 434.648C414.986 433.949 415.054 433.277 413.998 432.578L413.436 432.235C413.258 432.139 413.08 432.043 412.915 431.933L412.394 431.645L411.846 431.316Z" fill="white"/>
<path d="M422.431 420.649C422.547 420.58 422.681 420.547 422.815 420.553C422.954 420.545 423.093 420.578 423.213 420.649L424.762 421.54C424.806 421.558 424.843 421.589 424.87 421.627C424.897 421.666 424.912 421.712 424.913 421.759C424.913 421.808 424.898 421.856 424.871 421.898C424.845 421.939 424.807 421.972 424.762 421.992L422.198 423.391L429.657 427.696C429.767 427.696 429.822 427.833 429.822 427.929C429.818 427.978 429.8 428.024 429.771 428.063C429.742 428.101 429.703 428.131 429.657 428.149L427.752 429.246C427.636 429.316 427.502 429.349 427.368 429.342C427.229 429.349 427.09 429.316 426.97 429.246L419.511 424.94L416.947 426.421C416.823 426.484 416.687 426.516 416.549 426.517C416.415 426.518 416.283 426.485 416.165 426.421L414.616 425.53C414.506 425.461 414.451 425.393 414.451 425.297C414.455 425.249 414.473 425.202 414.502 425.164C414.531 425.125 414.571 425.095 414.616 425.077L422.431 420.649Z" fill="white"/>
<path d="M427.423 422.102C426.961 421.817 426.56 421.445 426.243 421.005C425.981 420.649 425.851 420.213 425.873 419.771C425.931 419.292 426.126 418.839 426.435 418.468C426.883 417.955 427.416 417.523 428.012 417.193C428.706 416.797 429.448 416.493 430.22 416.288C430.954 416.093 431.709 415.983 432.468 415.959C433.188 415.941 433.907 416.015 434.607 416.178C435.264 416.321 435.9 416.547 436.5 416.85L437.871 417.591L439.119 418.345C439.58 418.629 439.981 419.002 440.298 419.442C440.56 419.798 440.69 420.234 440.668 420.676C440.64 421.183 440.442 421.666 440.106 422.047C439.665 422.564 439.13 422.992 438.529 423.308C437.838 423.716 437.095 424.029 436.321 424.241C435.586 424.432 434.832 424.538 434.073 424.556C433.353 424.574 432.634 424.501 431.934 424.337C431.278 424.192 430.642 423.966 430.041 423.665C429.616 423.446 429.191 423.199 428.67 422.938L427.423 422.102ZM436.321 419.867L435.773 419.51L435.142 419.126L434.47 418.756L433.881 418.455C433.62 418.32 433.344 418.218 433.058 418.153C432.771 418.082 432.476 418.045 432.18 418.043C431.87 418.045 431.561 418.086 431.262 418.167C430.942 418.252 430.633 418.376 430.343 418.537C430.094 418.669 429.874 418.851 429.699 419.072C429.572 419.222 429.5 419.41 429.493 419.606C429.496 419.79 429.559 419.968 429.671 420.114C429.816 420.299 429.992 420.457 430.192 420.58C430.359 420.705 430.533 420.82 430.713 420.923C430.919 421.046 431.125 421.183 431.358 421.307L432.016 421.677C432.216 421.793 432.422 421.898 432.633 421.992C433.167 422.255 433.752 422.396 434.347 422.404C434.991 422.412 435.624 422.236 436.171 421.896C436.774 421.553 437.048 421.211 437.021 420.854C436.987 420.647 436.907 420.45 436.786 420.279C436.665 420.108 436.506 419.967 436.321 419.867Z" fill="white"/>
<path d="M443.698 412.778L444.206 413.093L444.891 413.491L445.591 413.902L446.153 414.19C446.396 414.317 446.654 414.413 446.921 414.478C447.202 414.559 447.492 414.605 447.785 414.615C448.094 414.612 448.402 414.575 448.703 414.506C449.046 414.424 449.375 414.29 449.677 414.108C449.936 413.973 450.169 413.792 450.362 413.573C450.478 413.438 450.563 413.279 450.609 413.107C450.651 412.978 450.651 412.839 450.609 412.709C450.551 412.594 450.477 412.488 450.39 412.394C450.316 412.31 450.26 412.212 450.225 412.106C450.225 412.106 450.307 411.955 450.472 411.859L452.378 410.762C452.477 410.717 452.584 410.693 452.693 410.693C452.802 410.693 452.91 410.717 453.009 410.762C453.444 410.997 453.805 411.348 454.051 411.777C454.251 412.145 454.315 412.573 454.229 412.984C454.111 413.457 453.88 413.894 453.557 414.259C453.127 414.741 452.617 415.145 452.049 415.452C451.365 415.845 450.632 416.145 449.869 416.343C449.136 416.545 448.38 416.656 447.62 416.672C446.896 416.691 446.173 416.617 445.467 416.453C444.812 416.319 444.18 416.092 443.589 415.781C443.164 415.575 442.739 415.328 442.218 415.068C441.697 414.807 441.34 414.547 440.942 414.286C440.477 414.018 440.075 413.653 439.763 413.217C439.513 412.85 439.388 412.412 439.407 411.969C439.453 411.489 439.644 411.035 439.955 410.666C440.39 410.149 440.921 409.721 441.518 409.405C442.169 409.031 442.865 408.741 443.589 408.541C444.305 408.337 445.04 408.204 445.783 408.143C446.484 408.096 447.188 408.133 447.881 408.253C448.495 408.347 449.089 408.547 449.636 408.843C449.674 408.86 449.706 408.886 449.73 408.92C449.754 408.954 449.769 408.993 449.773 409.035C449.772 409.075 449.758 409.114 449.733 409.146C449.708 409.178 449.674 409.201 449.636 409.213L447.73 410.324C447.603 410.406 447.456 410.454 447.305 410.461C447.142 410.441 446.982 410.409 446.825 410.365C446.646 410.306 446.463 410.265 446.276 410.241C446.049 410.213 445.818 410.213 445.591 410.241C445.318 410.264 445.047 410.309 444.782 410.378C444.455 410.476 444.142 410.614 443.849 410.79C443.582 410.923 443.347 411.116 443.164 411.352C443.043 411.499 442.976 411.683 442.972 411.873C442.988 412.061 443.065 412.239 443.191 412.38C443.347 412.529 443.517 412.663 443.698 412.778Z" fill="white"/>
<path d="M452.912 402.988C453.096 402.881 453.304 402.824 453.516 402.823C453.696 402.829 453.875 402.852 454.051 402.892L466.391 406.347L466.665 406.443C466.761 406.443 466.802 406.553 466.802 406.635C466.802 406.717 466.802 406.759 466.665 406.813L464.842 407.869C464.675 407.968 464.487 408.025 464.293 408.034C464.166 408.052 464.037 408.052 463.909 408.034L462.291 407.568L458.411 409.803L459.22 410.735C459.277 410.799 459.306 410.883 459.302 410.968C459.302 411.064 459.206 411.16 459.014 411.27L457.177 412.339C457.078 412.385 456.97 412.408 456.861 412.408C456.753 412.408 456.645 412.385 456.546 412.339C456.478 412.299 456.422 412.243 456.382 412.175L450.39 405.045C450.317 404.961 450.278 404.854 450.28 404.743C450.28 404.62 450.362 404.51 450.554 404.387L452.912 402.988ZM456.916 408.02L459.275 406.649L454.599 405.278L456.916 408.02Z" fill="white"/>
<path d="M462.319 397.558C462.929 397.208 463.572 396.919 464.238 396.694C464.851 396.486 465.486 396.353 466.13 396.297C466.755 396.253 467.383 396.299 467.995 396.434C468.612 396.571 469.204 396.802 469.75 397.119C470.348 397.41 470.831 397.892 471.122 398.49C471.216 398.714 471.249 398.959 471.218 399.2C471.187 399.441 471.092 399.669 470.943 399.862L476.209 400.821C476.281 400.829 476.351 400.853 476.414 400.89C476.51 400.89 476.551 401 476.551 401.082C476.551 401.164 476.551 401.205 476.414 401.26L474.44 402.398C474.28 402.511 474.087 402.569 473.891 402.563H473.439L468.708 401.699L467.337 402.467L470.45 404.263C470.559 404.263 470.614 404.4 470.614 404.496C470.61 404.544 470.592 404.591 470.563 404.629C470.534 404.668 470.495 404.698 470.45 404.716L468.544 405.813C468.428 405.881 468.294 405.914 468.16 405.909C468.021 405.916 467.882 405.883 467.762 405.813L458.356 400.396C458.311 400.376 458.274 400.343 458.247 400.302C458.22 400.26 458.206 400.212 458.205 400.163C458.207 400.115 458.222 400.067 458.249 400.026C458.275 399.985 458.312 399.952 458.356 399.93L462.319 397.558ZM465.061 401.055L466.72 400.081C467.045 399.926 467.317 399.678 467.502 399.368C467.611 399.121 467.502 398.874 467.063 398.641C466.689 398.415 466.247 398.328 465.815 398.394C465.374 398.458 464.95 398.607 464.567 398.833L462.922 399.793L465.061 401.055Z" fill="white"/>
<path d="M475.482 389.962C475.605 389.899 475.742 389.866 475.88 389.866C476.018 389.866 476.154 389.899 476.277 389.962L477.813 390.853C477.858 390.871 477.898 390.901 477.927 390.939C477.956 390.978 477.973 391.024 477.978 391.072C477.978 391.168 477.978 391.237 477.813 391.305L475.249 392.786L482.722 397.092C482.767 397.112 482.804 397.145 482.831 397.187C482.858 397.228 482.872 397.276 482.873 397.325C482.871 397.372 482.856 397.418 482.829 397.457C482.803 397.496 482.765 397.526 482.722 397.544L480.816 398.655C480.69 398.709 480.555 398.737 480.418 398.737C480.282 398.737 480.146 398.709 480.021 398.655L472.562 394.336L469.997 395.817C469.879 395.879 469.747 395.912 469.614 395.913C469.475 395.913 469.339 395.881 469.216 395.817L467.666 394.925C467.624 394.902 467.587 394.869 467.561 394.828C467.535 394.787 467.519 394.741 467.516 394.692C467.519 394.646 467.534 394.6 467.561 394.562C467.587 394.523 467.624 394.492 467.666 394.473L475.482 389.962Z" fill="white"/>
<path d="M367.996 449.443C364.307 451.568 364.307 455.01 367.996 457.122C370.058 458.169 372.339 458.716 374.653 458.716C376.966 458.716 379.247 458.169 381.31 457.122C384.985 455.01 384.985 451.568 381.31 449.443C379.247 448.395 376.966 447.849 374.653 447.849C372.339 447.849 370.058 448.395 367.996 449.443ZM378.965 451.952L376.497 453.324L378.965 454.695C379.067 454.725 379.156 454.788 379.22 454.873C379.284 454.958 379.318 455.061 379.318 455.168C379.318 455.274 379.284 455.378 379.22 455.463C379.156 455.548 379.067 455.61 378.965 455.641C378.713 455.77 378.433 455.837 378.149 455.837C377.866 455.837 377.586 455.77 377.334 455.641L374.852 454.27L372.384 455.641C372.131 455.77 371.851 455.837 371.568 455.837C371.284 455.837 371.005 455.77 370.752 455.641C370.65 455.61 370.561 455.548 370.497 455.463C370.434 455.378 370.399 455.274 370.399 455.168C370.399 455.061 370.434 454.958 370.497 454.873C370.561 454.788 370.65 454.725 370.752 454.695L373.22 453.324L370.752 451.952C370.65 451.922 370.561 451.86 370.497 451.774C370.434 451.689 370.399 451.586 370.399 451.479C370.399 451.373 370.434 451.27 370.497 451.184C370.561 451.099 370.65 451.037 370.752 451.006C371.005 450.877 371.284 450.81 371.568 450.81C371.851 450.81 372.131 450.877 372.384 451.006L374.852 452.377L377.334 451.006C377.586 450.877 377.866 450.81 378.149 450.81C378.433 450.81 378.713 450.877 378.965 451.006C379.096 451.021 379.216 451.087 379.298 451.19C379.38 451.292 379.419 451.424 379.404 451.555C379.389 451.686 379.323 451.805 379.221 451.888C379.118 451.97 378.986 452.008 378.856 451.993L378.965 451.952Z" fill="white"/>
<path d="M392.951 359.81C392.799 356.605 391.893 353.482 390.306 350.695C388.719 347.907 386.497 345.533 383.819 343.767C381.159 342.204 378.759 342.135 377.059 343.246L370.82 346.756L383.915 369.339L390.099 365.829C391.827 364.883 392.924 362.812 392.951 359.81Z" fill="#37474F"/>
<path d="M377.334 347.442C380.007 349.212 382.227 351.587 383.813 354.374C385.4 357.161 386.308 360.282 386.466 363.484C386.466 369.38 382.27 371.711 377.196 368.763C374.523 366.993 372.303 364.618 370.717 361.831C369.13 359.045 368.222 355.924 368.064 352.721C368.106 346.825 372.26 344.466 377.334 347.442Z" fill="#455A64"/>
<path d="M374.152 356.286C374.152 353.982 375.523 352.926 377.292 353.941C378.241 354.627 379.015 355.527 379.551 356.568C380.087 357.609 380.37 358.762 380.377 359.933C380.377 362.237 379.006 363.279 377.237 362.278C376.292 361.588 375.521 360.687 374.985 359.647C374.449 358.607 374.164 357.456 374.152 356.286Z" fill="#263238"/>
<path opacity="0.15" d="M386.465 363.484C386.434 361.367 386.006 359.274 385.204 357.314L369.367 348.114C368.473 349.48 368.023 351.089 368.078 352.721C368.078 352.789 368.078 352.858 368.078 352.94L386.451 363.608C386.451 363.608 386.465 363.525 386.465 363.484Z" fill="black"/>
<path d="M327.299 409.981C323.949 410.235 320.589 409.631 317.537 408.226L231.153 358.438C225.929 355.806 220.06 348.977 219.69 342.505L217.043 280.926L221.856 280.652L224.516 342.245C224.763 346.633 229.357 352.145 233.306 354.119L319.758 403.92C322.081 404.89 324.595 405.318 327.108 405.173C329.621 405.028 332.069 404.314 334.265 403.084L391.854 369.874C393.225 368.969 394.034 367.886 393.98 366.967C393.925 366.048 393.061 365.143 391.594 364.403L299.053 310.68C293.843 308.061 288.002 301.219 287.631 294.747L286.343 260.591L291.155 260.331L292.444 294.473C292.691 298.888 297.284 304.387 301.22 306.361L393.76 360.097C396.845 361.647 398.628 363.992 398.792 366.693C398.957 369.394 397.421 372.013 394.501 373.905L336.911 407.115C334.003 408.872 330.695 409.858 327.299 409.981Z" fill="#455A64"/>
<path d="M311.778 408.596C311.626 405.392 310.72 402.269 309.133 399.481C307.546 396.693 305.323 394.32 302.646 392.553C299.986 390.99 297.586 390.908 295.9 392.032L289.647 395.542L302.742 418.126L308.926 414.615C310.626 413.669 311.778 411.599 311.778 408.596Z" fill="#37474F"/>
<path d="M296.132 396.228C298.812 397.996 301.035 400.372 302.622 403.162C304.209 405.952 305.115 409.078 305.264 412.284C305.264 418.167 301.082 420.511 295.995 417.55C293.322 415.78 291.103 413.405 289.519 410.618C287.935 407.831 287.03 404.709 286.877 401.507C286.918 395.625 291.059 393.225 296.132 396.228Z" fill="#455A64"/>
<path d="M292.951 405.072C292.951 402.769 294.322 401.713 296.091 402.727C297.042 403.412 297.817 404.311 298.353 405.353C298.89 406.394 299.172 407.548 299.176 408.719C299.176 411.009 297.805 412.065 296.05 411.05C295.101 410.367 294.326 409.469 293.788 408.431C293.249 407.392 292.963 406.242 292.951 405.072Z" fill="#263238"/>
<path d="M247.908 371.78C247.763 368.577 246.864 365.454 245.285 362.664C243.705 359.874 241.489 357.496 238.818 355.723C236.144 354.16 233.758 354.078 232.058 355.189L225.805 358.685L238.859 381.296L245.056 377.786C246.784 376.853 247.881 374.783 247.908 371.78Z" fill="#37474F"/>
<path d="M232.318 359.398C234.983 361.165 237.196 363.534 238.778 366.314C240.359 369.093 241.265 372.206 241.423 375.4C241.423 381.282 237.213 383.627 232.14 380.651C229.468 378.879 227.252 376.501 225.673 373.711C224.093 370.921 223.194 367.798 223.049 364.595C223.09 358.754 227.245 356.409 232.318 359.398Z" fill="#455A64"/>
<path d="M229.123 368.215C229.123 365.925 230.494 364.869 232.263 365.884C233.211 366.571 233.984 367.472 234.519 368.512C235.055 369.553 235.339 370.705 235.348 371.876C235.348 374.179 233.977 375.222 232.194 374.221C231.251 373.527 230.482 372.624 229.948 371.581C229.415 370.538 229.133 369.386 229.123 368.215Z" fill="#263238"/>
<path d="M206.718 206.307C205.9 203.17 206.05 199.86 207.149 196.81C208.248 193.761 210.244 191.116 212.875 189.222L270.341 156.739C275.565 153.311 281.31 155.697 283.12 161.661L287.11 174.592L283.161 176.895L278.869 163.828C278.695 163.129 278.349 162.485 277.864 161.953C277.378 161.421 276.768 161.017 276.088 160.78C275.409 160.542 274.68 160.476 273.969 160.59C273.258 160.703 272.586 160.991 272.013 161.428L216.056 193.034C214.38 194.263 213.104 195.96 212.389 197.911C211.674 199.863 211.552 201.982 212.038 204.003L215.411 216.412L210.708 219.155L206.718 206.307Z" fill="#455A64"/>
<path d="M295.57 268.613L218.373 313.19L331.193 378.32L408.39 333.744L295.57 268.613Z" fill="#098D16"/>
<path opacity="0.5" d="M295.57 268.613L218.373 313.19L331.193 378.32L408.39 333.744L295.57 268.613Z" fill="black"/>
<path d="M210.708 219.237L287.11 174.605L295.57 268.613L218.373 313.19L210.708 219.237Z" fill="#098D16"/>
<path opacity="0.35" d="M210.708 219.237L287.11 174.605L295.57 268.613L218.373 313.19L210.708 219.237Z" fill="black"/>
<path d="M287.097 174.605L295.557 268.613L408.377 333.743L426.202 254.887L287.097 174.605ZM326.545 264.993C324.916 265.498 323.153 265.341 321.639 264.555C320.125 263.77 318.981 262.42 318.455 260.797L299.807 212.408C299.397 211.646 299.155 210.804 299.095 209.94C299.036 209.076 299.162 208.209 299.465 207.397C299.768 206.586 300.24 205.848 300.851 205.234C301.461 204.62 302.196 204.142 303.005 203.835C303.815 203.527 304.681 203.395 305.545 203.449C306.41 203.502 307.253 203.739 308.018 204.145C308.784 204.55 309.454 205.114 309.984 205.799C310.514 206.484 310.892 207.274 311.092 208.117L329.74 256.505C330.427 258.055 330.478 259.812 329.884 261.399C329.289 262.986 328.095 264.276 326.559 264.993H326.545ZM361.771 281.557C360.143 282.07 358.379 281.918 356.863 281.134C355.347 280.351 354.203 278.999 353.681 277.375L335.088 228.986C334.678 228.225 334.436 227.386 334.376 226.524C334.316 225.662 334.44 224.798 334.739 223.988C335.039 223.177 335.508 222.44 336.115 221.825C336.722 221.21 337.452 220.732 338.258 220.421C339.064 220.11 339.927 219.974 340.79 220.023C341.652 220.071 342.495 220.302 343.261 220.701C344.027 221.1 344.7 221.658 345.234 222.337C345.768 223.016 346.151 223.801 346.359 224.639L365.007 273.028C365.707 274.587 365.761 276.359 365.157 277.958C364.554 279.557 363.341 280.851 361.784 281.557H361.771ZM396.996 298.134C395.378 298.65 393.621 298.508 392.107 297.738C390.593 296.968 389.443 295.632 388.906 294.021L370.272 245.632C369.873 244.873 369.639 244.039 369.586 243.184C369.532 242.329 369.66 241.472 369.961 240.67C370.262 239.868 370.73 239.138 371.333 238.529C371.936 237.921 372.661 237.446 373.46 237.138C374.259 236.829 375.115 236.693 375.971 236.739C376.826 236.784 377.663 237.01 378.425 237.402C379.187 237.794 379.858 238.342 380.393 239.011C380.928 239.681 381.315 240.456 381.529 241.285L400.177 289.674C400.86 291.218 400.911 292.969 400.319 294.55C399.727 296.131 398.539 297.418 397.01 298.134H396.996Z" fill="#098D16"/>
<path opacity="0.23" d="M287.097 174.605L295.557 268.613L408.377 333.743L426.202 254.887L287.097 174.605ZM326.545 264.993C324.916 265.498 323.153 265.341 321.639 264.555C320.125 263.77 318.981 262.42 318.455 260.797L299.807 212.408C299.397 211.646 299.155 210.804 299.095 209.94C299.036 209.076 299.162 208.209 299.465 207.397C299.768 206.586 300.24 205.848 300.851 205.234C301.461 204.62 302.196 204.142 303.005 203.835C303.815 203.527 304.681 203.395 305.545 203.449C306.41 203.502 307.253 203.739 308.018 204.145C308.784 204.55 309.454 205.114 309.984 205.799C310.514 206.484 310.892 207.274 311.092 208.117L329.74 256.505C330.427 258.055 330.478 259.812 329.884 261.399C329.289 262.986 328.095 264.276 326.559 264.993H326.545ZM361.771 281.557C360.143 282.07 358.379 281.918 356.863 281.134C355.347 280.351 354.203 278.999 353.681 277.375L335.088 228.986C334.678 228.225 334.436 227.386 334.376 226.524C334.316 225.662 334.44 224.798 334.739 223.988C335.039 223.177 335.508 222.44 336.115 221.825C336.722 221.21 337.452 220.732 338.258 220.421C339.064 220.11 339.927 219.974 340.79 220.023C341.652 220.071 342.495 220.302 343.261 220.701C344.027 221.1 344.7 221.658 345.234 222.337C345.768 223.016 346.151 223.801 346.359 224.639L365.007 273.028C365.707 274.587 365.761 276.359 365.157 277.958C364.554 279.557 363.341 280.851 361.784 281.557H361.771ZM396.996 298.134C395.378 298.65 393.621 298.508 392.107 297.738C390.593 296.968 389.443 295.632 388.906 294.021L370.272 245.632C369.873 244.873 369.639 244.039 369.586 243.184C369.532 242.329 369.66 241.472 369.961 240.67C370.262 239.868 370.73 239.138 371.333 238.529C371.936 237.921 372.661 237.446 373.46 237.138C374.259 236.829 375.115 236.693 375.971 236.739C376.826 236.784 377.663 237.01 378.425 237.402C379.187 237.794 379.858 238.342 380.393 239.011C380.928 239.681 381.315 240.456 381.529 241.285L400.177 289.674C400.86 291.218 400.911 292.969 400.319 294.55C399.727 296.131 398.539 297.418 397.01 298.134H396.996Z" fill="black"/>
<path d="M210.708 219.237L218.373 313.19L331.193 378.32L349.019 299.478L210.708 219.237ZM255.244 311.723C253.615 312.228 251.852 312.07 250.338 311.285C248.824 310.5 247.68 309.149 247.154 307.527L228.52 259.138C228.119 258.379 227.882 257.544 227.827 256.687C227.772 255.83 227.9 254.971 228.201 254.167C228.502 253.363 228.97 252.632 229.575 252.022C230.179 251.412 230.906 250.937 231.707 250.629C232.509 250.32 233.366 250.185 234.224 250.232C235.081 250.28 235.919 250.508 236.681 250.903C237.444 251.298 238.114 251.849 238.648 252.522C239.181 253.195 239.566 253.973 239.777 254.805L258.425 303.18C259.129 304.736 259.19 306.506 258.594 308.106C257.998 309.706 256.794 311.006 255.244 311.723ZM290.47 328.286C288.842 328.799 287.078 328.648 285.562 327.864C284.046 327.08 282.902 325.729 282.38 324.104L263.787 275.716C263.377 274.955 263.135 274.116 263.074 273.254C263.014 272.392 263.138 271.527 263.438 270.717C263.738 269.907 264.207 269.17 264.814 268.555C265.421 267.94 266.151 267.461 266.957 267.151C267.763 266.84 268.626 266.704 269.489 266.752C270.351 266.801 271.194 267.032 271.96 267.431C272.726 267.83 273.398 268.388 273.933 269.067C274.467 269.745 274.85 270.53 275.058 271.369L293.692 319.758C294.392 321.316 294.447 323.089 293.843 324.688C293.239 326.286 292.026 327.58 290.47 328.286ZM325.695 344.864C324.069 345.376 322.307 345.224 320.793 344.44C319.28 343.657 318.138 342.305 317.619 340.682L298.971 292.293C298.562 291.532 298.319 290.693 298.259 289.831C298.199 288.97 298.323 288.105 298.623 287.295C298.923 286.485 299.391 285.748 299.998 285.133C300.605 284.518 301.335 284.039 302.141 283.728C302.948 283.417 303.81 283.281 304.673 283.33C305.535 283.378 306.378 283.61 307.144 284.009C307.91 284.408 308.583 284.965 309.117 285.644C309.651 286.323 310.035 287.108 310.242 287.946L328.876 336.335C329.579 337.889 329.64 339.657 329.044 341.255C328.448 342.853 327.244 344.15 325.695 344.864Z" fill="#098D16"/>
<g opacity="0.15">
<path d="M210.708 219.237L218.373 313.19L331.193 378.32L349.019 299.478L210.708 219.237ZM255.244 311.723C253.615 312.228 251.852 312.07 250.338 311.285C248.824 310.5 247.68 309.149 247.154 307.527L228.52 259.138C228.119 258.379 227.882 257.544 227.827 256.687C227.772 255.83 227.9 254.971 228.201 254.167C228.502 253.363 228.97 252.632 229.575 252.022C230.179 251.412 230.906 250.937 231.707 250.629C232.509 250.32 233.366 250.185 234.224 250.232C235.081 250.28 235.919 250.508 236.681 250.903C237.444 251.298 238.114 251.849 238.648 252.522C239.181 253.195 239.566 253.973 239.777 254.805L258.425 303.18C259.129 304.736 259.19 306.506 258.594 308.106C257.998 309.706 256.794 311.006 255.244 311.723ZM290.47 328.286C288.842 328.799 287.078 328.648 285.562 327.864C284.046 327.08 282.902 325.729 282.38 324.104L263.787 275.716C263.377 274.955 263.135 274.116 263.074 273.254C263.014 272.392 263.138 271.527 263.438 270.717C263.738 269.907 264.207 269.17 264.814 268.555C265.421 267.94 266.151 267.461 266.957 267.151C267.763 266.84 268.626 266.704 269.489 266.752C270.351 266.801 271.194 267.032 271.96 267.431C272.726 267.83 273.398 268.388 273.933 269.067C274.467 269.745 274.85 270.53 275.058 271.369L293.692 319.758C294.392 321.316 294.447 323.089 293.843 324.688C293.239 326.286 292.026 327.58 290.47 328.286ZM325.695 344.864C324.069 345.376 322.307 345.224 320.793 344.44C319.28 343.657 318.138 342.305 317.619 340.682L298.971 292.293C298.562 291.532 298.319 290.693 298.259 289.831C298.199 288.97 298.323 288.105 298.623 287.295C298.923 286.485 299.391 285.748 299.998 285.133C300.605 284.518 301.335 284.039 302.141 283.728C302.948 283.417 303.81 283.281 304.673 283.33C305.535 283.378 306.378 283.61 307.144 284.009C307.91 284.408 308.583 284.965 309.117 285.644C309.651 286.323 310.035 287.108 310.242 287.946L328.876 336.335C329.579 337.889 329.64 339.657 329.044 341.255C328.448 342.853 327.244 344.15 325.695 344.864Z" fill="black"/>
</g>
<path d="M349.005 299.478L426.202 254.901L408.39 333.757L331.193 378.32L349.005 299.478Z" fill="#098D16"/>
<path opacity="0.4" d="M349.005 299.478L426.202 254.901L408.39 333.757L331.193 378.32L349.005 299.478Z" fill="black"/>
<path d="M376.812 129.247L367.899 134.471L367.927 107.473L362.524 104.36L338.063 118.483L338.021 151.789L323.761 159.865L355.682 180.57L382.214 132.359L376.812 129.247Z" fill="#37474F"/>
<path d="M343.465 121.596L343.424 154.902L329.164 162.992L355.682 180.57L382.214 132.36L367.886 140.779L367.927 107.473L343.465 121.596Z" fill="#455A64"/>
<path d="M338.062 118.483L343.465 121.596L343.423 154.902L338.021 151.789L338.062 118.483Z" fill="#263238"/>
<path d="M227.546 150.212L304.853 105.58L298.409 12.5874L227.546 53.5032V150.212Z" fill="#098D16"/>
<path opacity="0.6" d="M227.546 150.212L304.853 105.58L298.409 12.5874L227.546 53.5032V150.212Z" fill="white"/>
<path d="M227.546 53.5032V46.0577L208.213 42.3418L279.075 1.42603L285.52 12.5874H298.409L227.546 53.5032Z" fill="#098D16"/>
<path opacity="0.3" d="M227.546 53.5032V46.0577L208.213 42.3418L279.075 1.42603L285.52 12.5874H298.409L227.546 53.5032Z" fill="white"/>
<path d="M279.075 1.42603V23.7487L285.52 20.0328V12.5874L279.075 1.42603Z" fill="#098D16"/>
<path opacity="0.1" d="M279.075 1.42603V23.7487L285.52 20.0328V12.5874L279.075 1.42603Z" fill="black"/>
<path d="M298.409 12.5874H285.52V20.0329L298.409 12.5874Z" fill="#098D16"/>
<path opacity="0.2" d="M298.409 12.5874H285.52V20.0329L298.409 12.5874Z" fill="black"/>
<path d="M208.213 42.3418L201.769 135.335L227.547 150.212V53.5031V46.0577L208.213 42.3418Z" fill="#098D16"/>
<path opacity="0.1" d="M208.213 42.3418L201.769 135.335L227.547 150.212V53.5031V46.0577L208.213 42.3418Z" fill="black"/>
<path d="M227.547 46.0576L214.658 142.766L227.547 150.212V46.0576Z" fill="#098D16"/>
<path opacity="0.2" d="M227.547 46.0576L214.658 142.766L227.547 150.212V46.0576Z" fill="black"/>
<path d="M227.547 150.212L215.727 134.704L201.769 135.335L227.547 150.212Z" fill="#098D16"/>
<path d="M229.11 41.3546C229.11 42.6161 229.987 43.1371 231.084 42.5064C231.662 42.1281 232.142 41.6196 232.488 41.0219C232.833 40.4242 233.033 39.7539 233.073 39.0647C233.073 37.8033 232.181 37.2822 231.084 37.913C230.509 38.292 230.03 38.8009 229.687 39.3987C229.344 39.9964 229.147 40.6664 229.11 41.3546Z" fill="#37474F"/>
<path d="M255.477 26.4775C255.477 27.739 256.368 28.2601 257.465 27.6156C258.043 27.2411 258.524 26.7354 258.87 26.1397C259.215 25.544 259.415 24.8752 259.453 24.1877C259.453 22.9262 258.562 22.4051 257.465 23.0359C256.887 23.4134 256.406 23.9216 256.061 24.5195C255.715 25.1174 255.515 25.7881 255.477 26.4775Z" fill="#37474F"/>
<path d="M231.084 39.9148C230.911 39.9113 230.746 39.8408 230.623 39.7181C230.5 39.5954 230.43 39.4301 230.426 39.2566V23.0082C230.426 15.9192 236.487 6.66383 243.946 2.35835C248.06 -0.0412053 252.036 -0.507402 254.765 1.06945C256.945 2.31721 258.138 4.7579 258.138 7.92531V24.3794C258.134 24.5552 258.062 24.7226 257.936 24.8456C257.811 24.9687 257.642 25.0376 257.466 25.0376C257.291 25.0376 257.124 24.9682 257 24.8448C256.877 24.7213 256.808 24.5539 256.808 24.3794V7.92531C256.808 5.18297 255.862 3.20848 254.065 2.19381C251.762 0.822635 248.293 1.32997 244.577 3.48271C237.488 7.59623 231.715 16.3169 231.715 22.9808V39.2566C231.712 39.4255 231.645 39.5871 231.529 39.709C231.412 39.831 231.253 39.9045 231.084 39.9148Z" fill="#37474F"/>
<path d="M248.704 52.5159C248.704 53.7773 249.595 54.2847 250.692 53.6539C251.27 53.2794 251.751 52.7737 252.096 52.178C252.442 51.5824 252.642 50.9135 252.68 50.226C252.68 48.9645 251.789 48.4435 250.692 49.0742C250.114 49.4517 249.632 49.96 249.287 50.5578C248.942 51.1557 248.742 51.8264 248.704 52.5159Z" fill="#455A64"/>
<path d="M275.112 37.6388C275.112 38.9003 276.004 39.4076 277.101 38.7769C277.678 38.4023 278.16 37.8966 278.505 37.301C278.851 36.7053 279.051 36.0365 279.089 35.3489C279.089 34.0737 278.197 33.5664 277.101 34.1972C276.521 34.573 276.039 35.0809 275.693 35.6791C275.347 36.2773 275.148 36.9489 275.112 37.6388Z" fill="#455A64"/>
<path d="M250.72 51.0761C250.55 51.0726 250.388 51.0035 250.268 50.8834C250.148 50.7633 250.079 50.6014 250.075 50.4316V34.1558C250.075 27.0805 256.136 17.8251 263.595 13.5882C267.708 11.1887 271.685 10.7225 274.414 12.2993C276.58 13.5471 277.773 15.9878 277.773 19.1552V35.6092C277.775 35.6968 277.759 35.7839 277.727 35.8653C277.695 35.9468 277.646 36.0209 277.585 36.0835C277.524 36.1461 277.451 36.1958 277.37 36.2297C277.289 36.2637 277.202 36.2811 277.115 36.2811C277.026 36.2811 276.939 36.2637 276.858 36.23C276.776 36.1962 276.702 36.1467 276.64 36.0843C276.577 36.0219 276.528 35.9479 276.494 35.8664C276.46 35.7848 276.443 35.6975 276.443 35.6092V19.1552C276.443 16.4128 275.51 14.452 273.7 13.4374C271.397 12.0662 267.942 12.5735 264.212 14.7263C257.123 18.8398 251.364 27.5605 251.364 34.2106V50.4316C251.357 50.6004 251.287 50.7604 251.168 50.8798C251.048 50.9992 250.888 51.0693 250.72 51.0761Z" fill="#455A64"/>
<path d="M515.04 104.045C511.05 112.628 504.221 126.834 500.478 134.704L485.834 117.455H473.493C473.493 117.455 488.302 148.992 497.132 156.369C497.823 157.017 498.639 157.518 499.53 157.841C500.421 158.163 501.369 158.3 502.315 158.244C503.261 158.187 504.185 157.938 505.032 157.512C505.878 157.086 506.629 156.492 507.238 155.765C510.836 151.415 514.147 146.834 517.151 142.054C524.144 131.249 527.271 126.587 527.271 126.587L536.073 89.5652C528.422 88.9893 520.579 92.1293 515.04 104.045Z" fill="#FFA8A7"/>
<path d="M537.54 89.5239C532.837 89.3457 527.723 88.7561 523.239 92.6776C518.95 96.4215 515.597 101.117 513.449 106.389C510.418 113.519 505.729 122.556 505.729 122.556C508.141 126.062 511.104 129.156 514.505 131.715C517.573 134.086 521.208 135.613 525.049 136.144L537.54 89.5239Z" fill="#098D16"/>
<path opacity="0.45" d="M537.54 89.5239C532.837 89.3457 527.723 88.7561 523.239 92.6776C518.95 96.4215 515.597 101.117 513.449 106.389C510.418 113.519 505.729 122.556 505.729 122.556C508.141 126.062 511.104 129.156 514.505 131.715C517.573 134.086 521.208 135.613 525.049 136.144L537.54 89.5239Z" fill="black"/>
<path d="M500.478 134.704C502.129 136.639 503.636 138.693 504.989 140.847C504.989 140.847 503.412 135.033 501.273 133.045L500.478 134.704Z" fill="#F28F8F"/>
<path d="M469.832 94.5425L470.997 93.3221C471.177 93.177 471.389 93.0764 471.616 93.0288C471.842 92.9811 472.077 92.9877 472.3 93.0479L486.478 95.4612C487.196 95.6223 487.871 95.9375 488.456 96.3849C489.041 96.8323 489.521 97.4014 489.865 98.0527L502.617 125.764C502.761 125.987 502.838 126.246 502.838 126.511C502.838 126.777 502.761 127.036 502.617 127.259L501.41 128.52C501.223 128.677 500.999 128.785 500.759 128.833C500.52 128.881 500.272 128.868 500.039 128.794L485.916 126.395C485.196 126.231 484.521 125.914 483.936 125.464C483.352 125.014 482.871 124.443 482.529 123.79L469.777 96.0782C469.462 95.3926 469.462 94.8441 469.832 94.5425Z" fill="#455A64"/>
<path d="M501.41 127.012L488.658 99.2868C488.313 98.6366 487.832 98.0684 487.248 97.6212C486.663 97.1739 485.989 96.8581 485.271 96.6953L471.094 94.3094C469.722 94.09 469.174 94.8853 469.722 96.1057L482.474 123.817C482.817 124.47 483.297 125.042 483.882 125.491C484.466 125.941 485.142 126.259 485.861 126.422L500.039 128.822C501.355 129.028 501.972 128.219 501.41 127.012Z" fill="#263238"/>
<path d="M486.862 97.3398C487.631 97.8181 488.256 98.4956 488.672 99.3006L501.424 126.998C501.56 127.216 501.632 127.468 501.632 127.725C501.632 127.982 501.56 128.234 501.424 128.452L502.562 127.272C502.704 127.052 502.779 126.795 502.779 126.532C502.779 126.27 502.704 126.013 502.562 125.792L489.81 98.0802C489.427 97.325 488.85 96.6859 488.137 96.2291L486.862 97.3398Z" fill="#37474F"/>
<path d="M476.537 121.952C470.669 115.22 470.833 106.787 473.534 104.346L475.317 108.24C475.317 108.24 484.298 110.242 488.617 109.913C492.937 109.584 496.46 108.542 497.64 109.392C500.149 111.161 500.876 118.675 493.691 121.417C487.589 123.735 476.537 121.952 476.537 121.952Z" fill="#FFA8A7"/>
<path d="M579.718 343.191C575.92 345.234 571.299 345.069 566.801 343.191L564.923 318.619L579.718 320.553V343.191Z" fill="#FFA8A7"/>
<path d="M534.373 328.506C531.178 335.43 525.392 333.51 518.879 329.082L520.031 304.4H535.731L534.373 328.506Z" fill="#FFA8A7"/>
<path d="M552.048 366.446C551.661 367.693 551.719 369.035 552.212 370.244C552.706 371.012 555.531 373.439 560.659 373.795C565.554 374.152 569.928 373.494 572.794 371.67C575.659 369.847 577.058 367.831 577.332 365.047C577.607 362.264 577.332 359.563 578.621 357.41C579.91 355.257 581.802 353.2 582.227 352.131C582.733 350.273 582.733 348.313 582.227 346.454L552.048 366.446Z" fill="#263238"/>
<path d="M565.444 342.108C565.369 343.16 565.171 344.2 564.855 345.206C564.1 347.365 563.092 349.427 561.852 351.349C561.232 352.351 560.549 353.313 559.809 354.229C558.328 355.984 556.49 357.424 554.927 359.124C553.25 360.713 552.178 362.836 551.897 365.13C551.691 368.969 555.86 370.271 559.068 370.847C562.537 371.451 566.097 371.273 569.489 370.326C571.27 369.859 572.879 368.889 574.123 367.532C575.368 366.176 576.196 364.49 576.51 362.675C576.688 361.606 576.619 360.509 576.756 359.439C577.184 356.99 578.206 354.683 579.732 352.72C580.627 351.593 581.395 350.369 582.022 349.073C583.023 346.687 582.227 344.014 581.583 341.655C581.034 339.612 580.404 337.295 579.691 337.542C579.735 337.961 579.674 338.386 579.512 338.776C579.277 339.154 579.088 339.559 578.95 339.982C578.805 340.524 578.613 341.052 578.374 341.559C578.016 342.351 577.416 343.008 576.66 343.438C576.66 342.066 576.564 340.544 576.523 339.091C576.558 338.641 576.443 338.192 576.194 337.816C575.854 337.505 575.42 337.317 574.96 337.281C572.269 336.634 569.494 336.407 566.733 336.609C566.526 336.601 566.319 336.64 566.129 336.723C565.939 336.806 565.771 336.931 565.636 337.089C565.47 337.385 565.403 337.726 565.444 338.063C565.518 339.41 565.518 340.76 565.444 342.108Z" fill="#37474F"/>
<path d="M561.33 352.09C562.702 351.02 565.965 351.006 567.72 351.198C569.499 351.353 571.21 351.951 572.697 352.94C572.915 353.098 573.182 353.174 573.451 353.154C573.72 353.134 573.973 353.019 574.165 352.83C574.275 352.721 574.36 352.589 574.414 352.444C574.469 352.299 574.492 352.144 574.482 351.989C574.471 351.835 574.428 351.684 574.354 351.548C574.281 351.411 574.178 351.292 574.055 351.198C572.419 349.99 570.475 349.267 568.447 349.114C564.141 348.813 562.88 349.553 562.88 349.553C562.88 349.553 560.933 350.869 561.33 352.09Z" fill="#F5F5F5"/>
<path d="M558.067 356.08C559.877 355.024 563.388 355.175 565.143 355.353C566.89 355.538 568.558 356.176 569.983 357.204C570.201 357.364 570.47 357.439 570.739 357.416C571.009 357.393 571.261 357.274 571.45 357.081C571.564 356.974 571.653 356.843 571.711 356.697C571.768 356.552 571.793 356.395 571.782 356.239C571.772 356.083 571.727 355.931 571.65 355.794C571.574 355.658 571.468 355.54 571.34 355.449C569.679 354.188 567.699 353.414 565.623 353.214C561.317 352.912 560.138 353.79 560.138 353.79C559.643 353.992 559.2 354.303 558.842 354.699C558.484 355.096 558.219 355.567 558.067 356.08Z" fill="#F5F5F5"/>
<path d="M570.188 345.056C568.375 344.728 566.507 344.884 564.772 345.508C564.018 345.933 563.511 347.126 564.004 347.428C565.527 346.821 567.174 346.595 568.804 346.77C570.419 346.932 571.996 347.368 573.466 348.059C573.836 348.223 574.274 348.443 574.658 348.662C574.777 348.724 574.907 348.761 575.04 348.772C575.174 348.784 575.308 348.769 575.435 348.728C575.563 348.687 575.681 348.621 575.783 348.535C575.885 348.448 575.969 348.342 576.03 348.223C576.135 348.009 576.156 347.762 576.087 347.533C576.018 347.304 575.866 347.11 575.659 346.989C573.994 345.964 572.129 345.305 570.188 345.056Z" fill="#F5F5F5"/>
<path d="M493.156 344.302C492.783 345.423 492.852 346.644 493.348 347.716C493.828 348.717 499.052 351.665 506.1 351.185C511.322 350.824 516.351 349.067 520.661 346.098C523.404 344.315 526.146 343.986 529.629 343.781C533.112 343.575 537.705 341.847 538.459 340.216C538.859 338.756 538.821 337.211 538.35 335.773L493.156 344.302Z" fill="#263238"/>
<path d="M521.47 322.637L519.647 321.924C519.325 321.76 518.954 321.721 518.605 321.814C518.152 321.979 517.974 322.514 517.851 322.98C517.687 324.02 517.43 325.043 517.083 326.037C516.564 326.848 515.894 327.551 515.108 328.108C513.362 329.512 511.473 330.73 509.473 331.742C507.169 332.976 504.92 333.935 502.535 335.005C500.149 336.074 496.899 336.76 495.007 338.049C492.264 339.914 491.881 344.589 495.007 346.441C497.749 348.031 504.866 349.759 512.366 347.633C516.479 346.482 520.977 342.149 526.338 341.696C529.752 341.436 536.197 340.476 538.391 337.884C539.2 336.733 538.116 333.099 537.239 329.959C536.265 326.517 535.868 321.156 534.757 321.458C534.675 322.596 533.688 323.268 533.084 324.2C532.613 325.084 532.205 326.001 531.864 326.942C531.523 327.888 530.901 328.706 530.081 329.287C529.671 329.566 529.18 329.703 528.685 329.675C528.189 329.648 527.716 329.459 527.339 329.136C526.338 328.094 526.928 326.271 526.201 325.023C525.609 324.234 524.76 323.676 523.801 323.446L521.47 322.637Z" fill="#37474F"/>
<path d="M512.654 329.932C512.902 329.463 513.262 329.064 513.702 328.77C514.143 328.475 514.649 328.295 515.177 328.245C516.726 327.957 519.469 329.095 521.169 330.508C521.332 330.638 521.46 330.807 521.542 330.999C521.624 331.191 521.657 331.4 521.638 331.608C521.619 331.816 521.548 332.016 521.433 332.19C521.318 332.364 521.161 332.507 520.977 332.606C520.748 332.733 520.484 332.785 520.224 332.755C519.963 332.726 519.719 332.616 519.523 332.441C517.647 330.742 515.183 329.842 512.654 329.932Z" fill="#F5F5F5"/>
<path d="M507.855 332.619C508.194 332.142 508.642 331.754 509.162 331.487C509.682 331.219 510.259 331.081 510.844 331.084C513.232 331.194 515.525 332.052 517.398 333.538C517.554 333.664 517.677 333.827 517.755 334.011C517.834 334.195 517.867 334.396 517.851 334.596C517.835 334.796 517.77 334.989 517.662 335.158C517.555 335.327 517.408 335.468 517.234 335.567C517.018 335.687 516.77 335.737 516.524 335.71C516.279 335.683 516.047 335.58 515.863 335.416C514.825 334.377 513.566 333.586 512.179 333.101C510.792 332.617 509.314 332.452 507.855 332.619Z" fill="#F5F5F5"/>
<path d="M502.535 335.046C502.924 334.611 503.402 334.263 503.936 334.027C504.471 333.79 505.049 333.67 505.634 333.675C507.937 333.814 510.137 334.683 511.913 336.157C512.069 336.283 512.192 336.445 512.271 336.63C512.349 336.814 512.382 337.015 512.366 337.215C512.35 337.415 512.285 337.607 512.178 337.777C512.07 337.946 511.923 338.086 511.749 338.186C511.531 338.3 511.283 338.346 511.038 338.316C510.793 338.287 510.563 338.184 510.378 338.022C509.392 336.949 508.17 336.122 506.809 335.605C505.447 335.088 503.983 334.897 502.535 335.046Z" fill="#F5F5F5"/>
<path d="M577.784 158.233C578.662 185.122 578.593 250.102 578.593 250.102C578.881 253.448 580.239 260.317 581.336 273.7C582.789 291.127 579.649 329.424 579.649 329.424C577.436 330.388 575.051 330.892 572.637 330.906C570.224 330.92 567.832 330.444 565.608 329.507C565.608 329.507 557.217 274.975 554.612 257.753C552.267 242.67 547.673 208.61 547.673 208.61L542.367 252.817C543.095 260.179 542.915 267.602 541.832 274.92C540.598 282.846 535.113 315.425 535.113 315.425C529.971 316.719 524.566 316.514 519.537 314.835C519.537 314.835 519.03 258.384 518.879 251.048C518.728 242.67 522.595 151.597 522.595 151.597L577.784 158.233Z" fill="#37474F"/>
<path d="M547.619 208.61L543.643 186.576C543.643 186.576 532.673 185.616 526.53 179.473C526.53 179.473 527.613 185.492 541.476 189.071L545.439 211.366L542.312 252.776L547.619 208.61Z" fill="#263238"/>
<path d="M523.952 110.229C525.132 101.618 526.27 90.045 539.611 89.5103L556.833 90.333C561.07 91.4436 577.552 93.3907 577.552 93.3907L577.867 130.741C577.867 130.741 578.909 157.671 578.594 172.082C566.253 179.898 539.447 182.435 522.595 169.642C522.088 157.754 522.773 118.757 523.952 110.229Z" fill="#FAFAFA"/>
<path d="M526.16 45.2077C525.003 47.2474 524.279 49.5038 524.034 51.8359C523.789 54.1679 524.028 56.5255 524.736 58.761C525.444 60.9965 526.606 63.0619 528.148 64.828C529.691 66.5941 531.581 68.0228 533.701 69.025L530.602 71.164L561.563 73.9063L561.166 81.3655C562.547 80.9895 563.731 80.0958 564.47 78.87C565.581 76.8818 568.584 64.6783 568.584 64.6783C571.491 58.0144 572.917 51.1586 570.832 48.8824C570.016 47.98 568.937 47.3565 567.747 47.0999L571.861 45.0294C571.681 44.6215 571.421 44.2542 571.095 43.9496C570.77 43.645 570.386 43.4094 569.967 43.257C569.548 43.1045 569.103 43.0384 568.658 43.0626C568.213 43.0868 567.777 43.2008 567.377 43.3977C567.028 43.5754 566.713 43.812 566.445 44.097C566.55 43.6462 566.619 43.1877 566.65 42.7259C566.788 41.3659 566.465 39.9991 565.732 38.8454C565.14 38.0703 564.399 37.4221 563.551 36.9395C560.069 34.7594 555.941 33.9504 552.061 32.5792C549.867 31.7976 547.742 30.8378 545.575 29.9602C544.168 29.2562 542.588 28.9707 541.023 29.1375C540.234 29.2686 539.529 29.7076 539.064 30.3582C538.598 31.0087 538.411 31.8175 538.541 32.6066C537.69 31.8335 536.63 31.3287 535.493 31.1555C534.357 30.9824 533.194 31.1485 532.152 31.6331C531.168 32.0411 530.337 32.7475 529.776 33.6528C529.215 34.558 528.953 35.6165 529.025 36.679C527.621 36.3297 526.139 36.4749 524.83 37.0903C524.182 37.4023 523.641 37.9001 523.277 38.5204C522.913 39.1407 522.743 39.8553 522.787 40.5731C523.327 42.4686 524.522 44.111 526.16 45.2077Z" fill="#37474F"/>
<path d="M547.961 49.5681C550.813 49.2254 553.638 48.7592 556.462 48.3204C556.588 48.2834 556.72 48.2728 556.85 48.2893C556.979 48.3058 557.104 48.3491 557.217 48.4164C557.338 48.5292 557.42 48.6783 557.45 48.8414C559.314 54.3261 559.26 60.1536 560.741 65.6794C560.878 66.1868 561.193 67.0506 561.796 67.0506C562.893 67.174 563.647 66.2005 564.114 65.3503L565.169 63.4444C565.388 63.0883 565.65 62.7612 565.951 62.4709C567.322 61.2505 571.203 59.7285 573.026 63.9243C574.85 68.1201 570.942 73.7694 567.788 74.6469C562.304 76.1689 561.632 72.6724 561.632 72.6724L560.59 92.1431C555.763 97.189 539.899 95.4339 543.039 91.0461L543.244 85.1227C540.825 85.4325 538.379 85.4785 535.95 85.2598C532.001 84.5193 529.615 81.3108 528.545 77.0327C526.831 70.0672 527.023 61.5522 528.367 50.9805C528.531 49.7275 528.859 48.5013 529.341 47.3331C534.894 50.432 541.654 50.3223 547.961 49.5681Z" fill="#FFA8A7"/>
<path d="M543.244 85.1911C543.244 85.1911 552.171 83.6965 555.324 82.1471C557.177 81.2525 558.716 79.8186 559.74 78.0336C559.212 79.8305 558.331 81.5041 557.148 82.9561C554.79 85.7807 543.176 87.5358 543.176 87.5358L543.244 85.1911Z" fill="#F28F8F"/>
<path d="M544.52 63.225C544.523 63.599 544.636 63.9639 544.844 64.2742C545.053 64.5845 545.349 64.8266 545.694 64.9702C546.039 65.1139 546.419 65.1527 546.786 65.082C547.154 65.0113 547.492 64.834 547.759 64.5724C548.026 64.3108 548.211 63.9763 548.289 63.6106C548.368 63.2449 548.337 62.8642 548.201 62.516C548.064 62.1677 547.829 61.8672 547.523 61.6519C547.217 61.4367 546.855 61.3161 546.481 61.3053C545.967 61.3017 545.472 61.5014 545.105 61.8611C544.737 62.2207 544.527 62.711 544.52 63.225Z" fill="#263238"/>
<path d="M547.166 55.2995L551.156 57.0134C551.375 56.4702 551.376 55.8635 551.159 55.3195C550.942 54.7756 550.523 54.3362 549.991 54.0928C549.727 53.98 549.443 53.9219 549.156 53.9219C548.869 53.9219 548.584 53.98 548.321 54.0927C548.057 54.2055 547.818 54.3706 547.62 54.578C547.421 54.7853 547.267 55.0308 547.166 55.2995Z" fill="#263238"/>
<path d="M546.823 73.5771L540.571 75.7025C540.691 76.1199 540.894 76.5089 541.168 76.8462C541.442 77.1835 541.781 77.4621 542.165 77.6656C542.549 77.8691 542.97 77.9931 543.403 78.0304C543.835 78.0677 544.271 78.0174 544.684 77.8826C545.53 77.5831 546.226 76.9664 546.625 76.1629C547.025 75.3594 547.096 74.4321 546.823 73.5771Z" fill="#B16668"/>
<path d="M544.698 77.8552C545.23 77.671 545.707 77.356 546.086 76.9391C546.465 76.5222 546.732 76.0168 546.864 75.4694C546.448 75.2711 545.988 75.181 545.528 75.2074C545.068 75.2338 544.621 75.376 544.23 75.6206C543.839 75.8653 543.516 76.2046 543.291 76.6072C543.066 77.0098 542.946 77.4626 542.943 77.9238C543.522 78.0723 544.132 78.0485 544.698 77.8552Z" fill="#F28F8F"/>
<path d="M528.669 56.9037L532.645 55.3817C532.551 55.1172 532.404 54.8746 532.214 54.6689C532.023 54.4632 531.792 54.2988 531.535 54.1858C531.278 54.0727 531 54.0135 530.72 54.0116C530.439 54.0098 530.161 54.0654 529.903 54.1751C529.387 54.3863 528.972 54.7866 528.743 55.294C528.514 55.8014 528.487 56.3773 528.669 56.9037Z" fill="#263238"/>
<path d="M530.067 63.2248C530.07 63.6015 530.184 63.969 530.394 64.2816C530.604 64.5942 530.902 64.838 531.25 64.9827C531.598 65.1274 531.98 65.1665 532.35 65.0953C532.72 65.024 533.061 64.8455 533.33 64.5819C533.599 64.3183 533.785 63.9814 533.864 63.6131C533.943 63.2448 533.912 62.8613 533.775 62.5105C533.637 62.1597 533.4 61.8571 533.092 61.6403C532.784 61.4235 532.418 61.3022 532.042 61.2914C531.524 61.2878 531.026 61.489 530.656 61.8512C530.286 62.2134 530.075 62.7071 530.067 63.2248Z" fill="#263238"/>
<path d="M539.391 62.6353L539.103 73.1659L533.235 71.4657L538.72 62.5531C538.947 62.5315 539.176 62.5596 539.391 62.6353Z" fill="#F28F8F"/>
<path d="M521.854 120.937C522.307 110.037 523.225 100.37 527.229 95.2828C531.233 90.1958 533.468 89.1948 543.094 89.3456V90.0038C542.546 90.0379 542.014 90.1979 541.538 90.4714C541.062 90.7449 540.656 91.1245 540.351 91.5806C537.022 96.6355 534.522 102.19 532.947 108.035C530.205 118.634 529.67 142.314 529.519 155.052C529.368 167.79 529.519 178.074 529.519 178.074C529.519 178.074 523.075 176.566 521.086 173.344C521.086 173.344 521.388 131.852 521.854 120.937Z" fill="#098D16"/>
<path opacity="0.35" d="M521.854 120.937C522.307 110.037 523.225 100.37 527.229 95.2828C531.233 90.1958 533.468 89.1948 543.094 89.3456V90.0038C542.546 90.0379 542.014 90.1979 541.538 90.4714C541.062 90.7449 540.656 91.1245 540.351 91.5806C537.022 96.6355 534.522 102.19 532.947 108.035C530.205 118.634 529.67 142.314 529.519 155.052C529.368 167.79 529.519 178.074 529.519 178.074C529.519 178.074 523.075 176.566 521.086 173.344C521.086 173.344 521.388 131.852 521.854 120.937Z" fill="black"/>
<path d="M555.133 103.578C556.504 97.7647 559.342 93.9803 560.617 90.9774L572.656 92.6777C577.085 94.7207 582.844 99.5335 582.419 104.47L579.265 140.203L580.143 174.043C573.287 184.724 552.719 182.75 552.719 182.75C552.719 182.75 552.13 167.53 552.788 138.132C553.199 121.651 553.391 110.983 555.133 103.578Z" fill="#098D16"/>
<path opacity="0.35" d="M555.133 103.578C556.504 97.7647 559.342 93.9803 560.617 90.9774L572.656 92.6777C577.085 94.7207 582.844 99.5335 582.419 104.47L579.265 140.203L580.143 174.043C573.287 184.724 552.719 182.75 552.719 182.75C552.719 182.75 552.13 167.53 552.788 138.132C553.199 121.651 553.391 110.983 555.133 103.578Z" fill="black"/>
<path d="M554.57 106.444C555.366 102.715 555.791 95.7765 556.449 94.3779C557.107 92.9793 560.686 90.2644 560.823 88.3311V87.1107C561.955 87.3296 563.002 87.8671 563.839 88.6601C564.964 89.6611 568.282 91.9784 568.282 91.9784C567.953 94.2805 567.099 96.4761 565.786 98.3955C563.812 101.234 561.07 103.085 560.645 102.386C560.22 101.686 560.288 100.617 559.561 98.9714C558.656 96.9009 558.437 96.0233 557.477 98.0664C556.764 99.6981 554.57 106.444 554.57 106.444Z" fill="#37474F"/>
<path d="M534.044 104.401C533.07 107.555 535.634 93.5141 537.307 91.046C538.98 88.5779 543.231 87.6044 543.231 87.6044L543.052 90.6347C541.934 90.9 540.955 91.5752 540.31 92.5269C537.711 96.194 535.605 100.186 534.044 104.401Z" fill="#37474F"/>
<path d="M554.132 109.392C563.343 110.334 572.497 111.767 581.555 113.684L581.459 114.699C572.379 112.771 563.202 111.334 553.967 110.393C554.063 110.092 554.091 109.749 554.132 109.392Z" fill="#098D16"/>
<path d="M522.704 109.2C525.707 108.844 529.121 108.528 532.865 108.35L532.618 109.378C528.916 109.557 525.543 109.872 522.595 110.229C522.622 109.886 522.663 109.529 522.704 109.2Z" fill="#098D16"/>
<path d="M604.878 140.847C592.017 108.186 589.206 98.0254 580.129 94.2273C577.737 93.3081 575.215 92.7713 572.656 92.6367C570.421 96.7502 567.171 112.546 577.894 123.543C577.894 123.543 585.682 142.739 589.604 151.817C589.48 160.949 590.138 168.559 587.355 180.899C586.789 182.567 585.703 184.008 584.256 185.013C580.993 186.809 580.444 188.838 578.031 191.156C576.152 192.965 574.507 193.391 574.781 193.994C575.206 194.661 575.842 195.167 576.587 195.43C577.333 195.694 578.145 195.7 578.895 195.447C580.66 194.725 582.354 193.839 583.954 192.801C584.27 193.171 581.212 198.039 578.045 201.59C573.341 206.814 572.203 210.585 581.596 210.955C587.478 211.188 593.827 206.362 597.817 194.638C598.598 192.321 599.421 188.975 600.258 185.712C600.861 184.341 605.166 162.32 606.071 155.546C607.278 147.182 606.976 146.154 604.878 140.847Z" fill="#FFA8A7"/>
<path d="M571.052 92.6776C574.966 92.12 578.956 92.8211 582.446 94.6795C587.533 97.7509 589.302 100.438 595.431 114.726C601.56 129.014 602.767 131.77 602.767 131.77C602.767 131.77 600.025 139.914 583.653 140.847L576.317 124.119C576.317 124.119 570.229 116.536 569.667 107.171C569.105 97.8057 571.052 92.6776 571.052 92.6776Z" fill="#098D16"/>
<path opacity="0.45" d="M571.052 92.6776C574.966 92.12 578.956 92.8211 582.446 94.6795C587.533 97.7509 589.302 100.438 595.431 114.726C601.56 129.014 602.767 131.77 602.767 131.77C602.767 131.77 600.025 139.914 583.653 140.847L576.317 124.119C576.317 124.119 570.229 116.536 569.667 107.171C569.105 97.8057 571.052 92.6776 571.052 92.6776Z" fill="black"/>
</svg>
