<svg width="388" height="444" viewBox="0 0 388 444" fill="none" xmlns="http://www.w3.org/2000/svg">
<path d="M81.4822 352.388C81.2557 352.388 81.0385 352.298 80.8784 352.137C80.7183 351.977 80.6284 351.76 80.6284 351.533V344.863C80.6284 341.179 79.165 337.646 76.5601 335.041C73.9552 332.436 70.4221 330.973 66.7382 330.973C63.0543 330.973 59.5213 332.436 56.9164 335.041C54.3115 337.646 52.848 341.179 52.848 344.863V351.533C52.848 351.76 52.758 351.977 52.5978 352.138C52.4376 352.298 52.2203 352.388 51.9938 352.388C51.7672 352.388 51.5499 352.298 51.3897 352.138C51.2295 351.977 51.1395 351.76 51.1395 351.533V344.863C51.1278 342.807 51.5226 340.769 52.3012 338.866C53.0799 336.963 54.227 335.233 55.6766 333.775C57.1262 332.317 58.8497 331.16 60.7481 330.371C62.6464 329.581 64.682 329.175 66.738 329.175C68.7939 329.175 70.8296 329.581 72.7279 330.371C74.6262 331.16 76.3497 332.317 77.7994 333.775C79.249 335.233 80.3961 336.963 81.1747 338.866C81.9534 340.769 82.3482 342.807 82.3364 344.863V351.533C82.3364 351.76 82.2464 351.977 82.0862 352.138C81.926 352.298 81.7087 352.388 81.4822 352.388Z" fill="#494945"/>
<path d="M101.714 345.769H83.7404V442.776H101.714V345.769Z" fill="#0CBC8B"/>
<path opacity="0.21" d="M101.714 345.769H83.7404V442.776H101.714V345.769Z" fill="#0A0A0A"/>
<path d="M83.7405 345.769H13.7835V442.776H83.7405V345.769Z" fill="#0CBC8B"/>
<path d="M63.5069 352.388C63.2805 352.388 63.0633 352.298 62.9032 352.137C62.7431 351.977 62.6532 351.76 62.6532 351.533V344.863C62.6642 343.032 62.3131 341.216 61.62 339.521C60.9269 337.826 59.9055 336.285 58.6146 334.986C57.3236 333.687 55.7886 332.657 54.0979 331.953C52.4071 331.25 50.594 330.888 48.7627 330.888C46.9315 330.888 45.1184 331.25 43.4276 331.953C41.7369 332.657 40.2018 333.687 38.9109 334.986C37.62 336.285 36.5986 337.826 35.9055 339.521C35.2124 341.216 34.8612 343.032 34.8723 344.863V351.533C34.8751 351.647 34.8551 351.761 34.8134 351.867C34.7717 351.973 34.7092 352.069 34.6297 352.151C34.5501 352.232 34.455 352.297 34.35 352.342C34.245 352.386 34.1322 352.409 34.0183 352.409C33.9044 352.409 33.7916 352.386 33.6866 352.342C33.5816 352.297 33.4865 352.232 33.4069 352.151C33.3273 352.069 33.2649 351.973 33.2232 351.867C33.1815 351.761 33.1615 351.647 33.1643 351.533V344.863C33.1525 342.807 33.5474 340.769 34.326 338.866C35.1046 336.963 36.2517 335.233 37.7014 333.775C39.151 332.317 40.8745 331.16 42.7728 330.371C44.6711 329.581 46.7068 329.175 48.7627 329.175C50.8187 329.175 52.8543 329.581 54.7527 330.371C56.651 331.16 58.3745 332.317 59.8241 333.775C61.2737 335.233 62.4208 336.963 63.1995 338.866C63.9781 340.769 64.3729 342.807 64.3612 344.863V351.533C64.3612 351.76 64.2712 351.977 64.111 352.138C63.9508 352.298 63.7335 352.388 63.5069 352.388Z" fill="#494945"/>
<path opacity="0.11" d="M83.7404 345.769L92.7273 355.447L101.714 345.769H83.7404Z" fill="#0A0A0A"/>
<path opacity="0.11" d="M83.7404 442.776L92.7273 433.097L101.714 442.776H83.7404Z" fill="#0A0A0A"/>
<path d="M280.293 0H131.433C119.118 0 109.135 9.98288 109.135 22.2974V372.233C109.135 384.548 119.118 394.531 131.433 394.531H280.293C292.607 394.531 302.59 384.548 302.59 372.233V22.2974C302.59 9.98288 292.607 0 280.293 0Z" fill="#292A2E"/>
<path d="M280.223 6.96252H131.503C123.047 6.96252 116.192 13.8175 116.192 22.2734V371.737C116.192 380.193 123.047 387.048 131.503 387.048H280.223C288.679 387.048 295.534 380.193 295.534 371.737V22.2734C295.534 13.8175 288.679 6.96252 280.223 6.96252Z" fill="white"/>
<path d="M169.132 4.08405H242.591V11.6852C242.591 13.8649 241.725 15.9554 240.184 17.4968C238.643 19.0383 236.553 19.9046 234.373 19.9051H177.352C175.172 19.9051 173.081 19.0391 171.54 17.4975C169.998 15.956 169.132 13.8652 169.132 11.6852V4.08405Z" fill="#292A2E"/>
<g opacity="0.15">
<path opacity="0.15" d="M279.432 124.309H132.292C130.258 124.306 128.309 123.497 126.87 122.059C125.432 120.621 124.624 118.672 124.621 116.638V39.0178C124.624 36.9841 125.432 35.0344 126.87 33.5964C128.309 32.1583 130.258 31.3494 132.292 31.3471H279.432C281.466 31.3494 283.416 32.1583 284.854 33.5964C286.292 35.0344 287.101 36.9841 287.103 39.0178V116.638C287.101 118.672 286.292 120.621 284.854 122.059C283.416 123.497 281.466 124.306 279.432 124.309ZM132.292 32.3623C130.528 32.3646 128.836 33.0666 127.589 34.3143C126.341 35.5619 125.639 37.2535 125.637 39.0178V116.638C125.639 118.402 126.341 120.094 127.589 121.342C128.836 122.589 130.528 123.291 132.292 123.293H279.432C281.197 123.291 282.889 122.59 284.137 121.342C285.384 120.094 286.086 118.402 286.088 116.638V39.0178C286.086 37.2533 285.384 35.5616 284.136 34.3139C282.889 33.0662 281.197 32.3643 279.432 32.3623H132.292Z" fill="#292A2E"/>
</g>
<g opacity="0.43">
<path opacity="0.43" d="M209.327 53.1466C211.959 53.1466 214.094 51.0124 214.094 48.3798C214.094 45.7472 211.959 43.613 209.327 43.613C206.694 43.613 204.56 45.7472 204.56 48.3798C204.56 51.0124 206.694 53.1466 209.327 53.1466Z" fill="#035916"/>
<path opacity="0.43" d="M224.555 53.1466C227.187 53.1466 229.321 51.0124 229.321 48.3798C229.321 45.7472 227.187 43.613 224.555 43.613C221.922 43.613 219.788 45.7472 219.788 48.3798C219.788 51.0124 221.922 53.1466 224.555 53.1466Z" fill="#035916"/>
<path opacity="0.43" d="M239.782 53.1466C242.415 53.1466 244.549 51.0124 244.549 48.3798C244.549 45.7472 242.415 43.613 239.782 43.613C237.149 43.613 235.015 45.7472 235.015 48.3798C235.015 51.0124 237.149 53.1466 239.782 53.1466Z" fill="#035916"/>
<path opacity="0.43" d="M255.01 53.1466C257.642 53.1466 259.777 51.0124 259.777 48.3798C259.777 45.7472 257.642 43.613 255.01 43.613C252.377 43.613 250.243 45.7472 250.243 48.3798C250.243 51.0124 252.377 53.1466 255.01 53.1466Z" fill="#035916"/>
<path opacity="0.43" d="M270.238 53.1466C272.87 53.1466 275.004 51.0124 275.004 48.3798C275.004 45.7472 272.87 43.613 270.238 43.613C267.605 43.613 265.471 45.7472 265.471 48.3798C265.471 51.0124 267.605 53.1466 270.238 53.1466Z" fill="#035916"/>
</g>
<g opacity="0.15">
<path opacity="0.15" d="M275.004 63.1268H205.862V64.142H275.004V63.1268Z" fill="#292A2E"/>
</g>
<g opacity="0.15">
<path opacity="0.15" d="M275.004 73.2786H205.862V74.2938H275.004V73.2786Z" fill="#292A2E"/>
</g>
<g opacity="0.15">
<path opacity="0.15" d="M242.593 83.4304H205.862V84.4456H242.593V83.4304Z" fill="#292A2E"/>
</g>
<g opacity="0.15">
<path opacity="0.15" d="M275.512 111.122H251.898V103.601H275.512V111.122ZM252.913 110.107H274.497V104.617H252.913V110.107Z" fill="#292A2E"/>
</g>
<path d="M242.44 104.109H219.841V110.614H242.44V104.109Z" fill="#0CBC8B"/>
<path d="M187.784 57.053C186.687 54.247 183.042 52.5232 176.337 50.4157C176.125 50.3492 175.466 50.1878 174.799 50.0289C174.596 49.9805 174.385 49.9777 174.181 50.0208C173.976 50.0638 173.784 50.1516 173.618 50.2778C173.452 50.4041 173.316 50.5656 173.22 50.7508C173.123 50.9359 173.069 51.1401 173.062 51.3487C173.062 51.3487 172.249 54.8845 166.283 54.8845C159.228 54.8845 158.263 51.3487 158.263 51.3487C158.255 51.1401 158.202 50.9359 158.105 50.7508C158.009 50.5656 157.873 50.4041 157.707 50.2778C157.541 50.1516 157.348 50.0638 157.144 50.0208C156.94 49.9777 156.729 49.9805 156.526 50.0289C155.859 50.1878 155.2 50.3492 154.987 50.4157C148.283 52.5232 144.638 54.247 143.541 57.053C139.691 66.9002 133.825 97.8713 133.825 97.8713L142.56 100.163L149.905 74.174C150.953 78.0717 151.286 89.9772 151.286 89.9772H159.655H171.67H179.813C179.813 89.9772 180.371 78.0717 181.42 74.174L188.764 100.163L197.499 97.8713C197.499 97.8713 191.634 66.9002 187.784 57.053Z" fill="#035916"/>
<path opacity="0.48" d="M187.784 57.053C186.687 54.247 183.042 52.5232 176.337 50.4157C176.125 50.3492 175.466 50.1878 174.799 50.0289C174.596 49.9805 174.385 49.9777 174.181 50.0208C173.976 50.0638 173.784 50.1516 173.618 50.2778C173.452 50.4041 173.316 50.5656 173.22 50.7508C173.123 50.9359 173.069 51.1401 173.062 51.3487C173.062 51.3487 172.249 54.8845 166.283 54.8845C159.228 54.8845 158.263 51.3487 158.263 51.3487C158.255 51.1401 158.202 50.9359 158.105 50.7508C158.009 50.5656 157.873 50.4041 157.707 50.2778C157.541 50.1516 157.348 50.0638 157.144 50.0208C156.94 49.9777 156.729 49.9805 156.526 50.0289C155.859 50.1878 155.2 50.3492 154.987 50.4157C148.283 52.5232 144.638 54.247 143.541 57.053C139.691 66.9002 133.825 97.8713 133.825 97.8713L142.56 100.163L149.905 74.174C150.953 78.0717 151.286 89.9772 151.286 89.9772H159.655H171.67H179.813C179.813 89.9772 180.371 78.0717 181.42 74.174L188.764 100.163L197.499 97.8713C197.499 97.8713 191.634 66.9002 187.784 57.053Z" fill="white"/>
<g opacity="0.15">
<path opacity="0.15" d="M279.432 233.609H132.292C130.258 233.606 128.309 232.798 126.871 231.36C125.433 229.922 124.624 227.972 124.621 225.939V148.318C124.624 146.284 125.433 144.335 126.871 142.897C128.309 141.459 130.258 140.65 132.292 140.648H279.432C281.466 140.65 283.416 141.459 284.854 142.897C286.292 144.335 287.101 146.284 287.103 148.318V225.939C287.101 227.972 286.292 229.922 284.854 231.36C283.416 232.798 281.466 233.606 279.432 233.609ZM132.292 141.663C130.528 141.665 128.837 142.367 127.589 143.615C126.342 144.862 125.64 146.553 125.637 148.318V225.939C125.639 227.703 126.341 229.394 127.589 230.642C128.836 231.89 130.528 232.591 132.292 232.594H279.432C281.197 232.592 282.889 231.89 284.136 230.642C285.384 229.395 286.086 227.703 286.088 225.939V148.318C286.086 146.553 285.384 144.861 284.136 143.614C282.889 142.366 281.197 141.664 279.432 141.662L132.292 141.663Z" fill="#292A2E"/>
</g>
<g opacity="0.43">
<path opacity="0.43" d="M209.327 162.447C211.959 162.447 214.094 160.313 214.094 157.681C214.094 155.048 211.959 152.914 209.327 152.914C206.694 152.914 204.56 155.048 204.56 157.681C204.56 160.313 206.694 162.447 209.327 162.447Z" fill="#035916"/>
<path opacity="0.43" d="M224.555 162.447C227.187 162.447 229.321 160.313 229.321 157.681C229.321 155.048 227.187 152.914 224.555 152.914C221.922 152.914 219.788 155.048 219.788 157.681C219.788 160.313 221.922 162.447 224.555 162.447Z" fill="#035916"/>
<path opacity="0.43" d="M239.782 162.447C242.415 162.447 244.549 160.313 244.549 157.681C244.549 155.048 242.415 152.914 239.782 152.914C237.149 152.914 235.015 155.048 235.015 157.681C235.015 160.313 237.149 162.447 239.782 162.447Z" fill="#035916"/>
<path opacity="0.43" d="M255.01 162.447C257.642 162.447 259.777 160.313 259.777 157.681C259.777 155.048 257.642 152.914 255.01 152.914C252.377 152.914 250.243 155.048 250.243 157.681C250.243 160.313 252.377 162.447 255.01 162.447Z" fill="#035916"/>
<path opacity="0.43" d="M270.238 162.447C272.87 162.447 275.004 160.313 275.004 157.681C275.004 155.048 272.87 152.914 270.238 152.914C267.605 152.914 265.471 155.048 265.471 157.681C265.471 160.313 267.605 162.447 270.238 162.447Z" fill="#035916"/>
</g>
<g opacity="0.15">
<path opacity="0.15" d="M275.004 172.427H205.862V173.442H275.004V172.427Z" fill="#292A2E"/>
</g>
<g opacity="0.15">
<path opacity="0.15" d="M275.004 182.579H205.862V183.594H275.004V182.579Z" fill="#292A2E"/>
</g>
<g opacity="0.15">
<path opacity="0.15" d="M242.593 192.731H205.862V193.746H242.593V192.731Z" fill="#292A2E"/>
</g>
<g opacity="0.15">
<path opacity="0.15" d="M275.512 220.422H251.898V212.902H275.512V220.422ZM252.913 219.407H274.497V213.917H252.913V219.407Z" fill="#292A2E"/>
</g>
<path d="M242.44 213.409H219.841V219.915H242.44V213.409Z" fill="#0CBC8B"/>
<path opacity="0.48" d="M187.385 170.666C185.738 168.628 182.11 167.328 177.87 166.298C176.148 165.88 174.98 165.723 174.98 165.723C173.616 169.18 169.4 171.682 165.683 171.683H165.425C161.709 171.683 157.71 169.18 156.345 165.723C156.345 165.723 155.178 165.88 153.452 166.298C149.213 167.328 145.584 168.628 143.938 170.666C141.407 173.796 137.865 185.579 137.865 185.579L148.134 189.858C148.213 190.072 148.291 190.286 148.368 190.5C148.423 190.654 148.477 190.807 148.53 190.96C148.525 190.944 148.52 190.93 148.514 190.914C148.527 190.95 148.54 190.987 148.552 191.023C150.31 196.213 151.529 201.571 152.19 207.012C152.234 206.997 179.085 206.997 179.129 207.012C179.79 201.571 181.009 196.213 182.768 191.023C182.78 190.987 182.792 190.95 182.805 190.914C182.853 190.776 182.902 190.638 182.951 190.5C183.028 190.286 183.106 190.072 183.185 189.858L193.454 185.579C193.454 185.579 189.915 173.799 187.385 170.666Z" fill="white"/>
<path d="M187.385 170.666C185.738 168.628 182.11 167.328 177.87 166.298C176.148 165.88 174.98 165.723 174.98 165.723C173.616 169.18 169.4 171.682 165.683 171.683H165.425C161.709 171.683 157.71 169.18 156.345 165.723C156.345 165.723 155.178 165.88 153.452 166.298C149.213 167.328 145.584 168.628 143.938 170.666C141.407 173.796 137.865 185.579 137.865 185.579L148.134 189.858C148.213 190.072 148.291 190.286 148.368 190.5C148.423 190.654 148.477 190.807 148.53 190.96C148.525 190.944 148.52 190.93 148.514 190.914C148.527 190.95 148.54 190.987 148.552 191.023C150.31 196.213 151.529 201.571 152.19 207.012C152.234 206.997 179.085 206.997 179.129 207.012C179.79 201.571 181.009 196.213 182.768 191.023C182.78 190.987 182.792 190.95 182.805 190.914C182.853 190.776 182.902 190.638 182.951 190.5C183.028 190.286 183.106 190.072 183.185 189.858L193.454 185.579C193.454 185.579 189.915 173.799 187.385 170.666Z" fill="#035916"/>
<path opacity="0.48" d="M187.385 170.666C185.738 168.628 182.11 167.328 177.87 166.298C176.148 165.88 174.98 165.723 174.98 165.723C173.616 169.18 169.4 171.682 165.683 171.683H165.425C161.709 171.683 157.71 169.18 156.345 165.723C156.345 165.723 155.178 165.88 153.452 166.298C149.213 167.328 145.584 168.628 143.938 170.666C141.407 173.796 137.865 185.579 137.865 185.579L148.134 189.858C148.213 190.072 148.291 190.286 148.368 190.5C148.423 190.654 148.477 190.807 148.53 190.96C148.525 190.944 148.52 190.93 148.514 190.914C148.527 190.95 148.54 190.987 148.552 191.023C150.31 196.213 151.529 201.571 152.19 207.012C152.234 206.997 179.085 206.997 179.129 207.012C179.79 201.571 181.009 196.213 182.768 191.023C182.78 190.987 182.792 190.95 182.805 190.914C182.853 190.776 182.902 190.638 182.951 190.5C183.028 190.286 183.106 190.072 183.185 189.858L193.454 185.579C193.454 185.579 189.915 173.799 187.385 170.666Z" fill="white"/>
<g opacity="0.15">
<path opacity="0.15" d="M279.432 341.386H132.292C130.258 341.384 128.308 340.575 126.87 339.137C125.432 337.699 124.624 335.749 124.621 333.715V256.095C124.624 254.061 125.433 252.112 126.871 250.674C128.309 249.236 130.258 248.427 132.292 248.425H279.432C281.466 248.427 283.416 249.236 284.854 250.674C286.292 252.112 287.101 254.061 287.103 256.095V333.715C287.101 335.749 286.292 337.699 284.854 339.137C283.416 340.575 281.466 341.384 279.432 341.386ZM132.292 249.44C130.528 249.442 128.836 250.144 127.588 251.391C126.341 252.639 125.639 254.331 125.636 256.095V333.715C125.638 335.48 126.34 337.171 127.588 338.419C128.836 339.667 130.527 340.369 132.292 340.371H279.432C281.197 340.369 282.889 339.667 284.137 338.419C285.384 337.171 286.086 335.48 286.088 333.715V256.095C286.086 254.331 285.384 252.639 284.136 251.391C282.888 250.144 281.197 249.442 279.432 249.44H132.292Z" fill="#292A2E"/>
</g>
<g opacity="0.43">
<path opacity="0.43" d="M209.327 270.224C211.959 270.224 214.094 268.09 214.094 265.457C214.094 262.824 211.959 260.69 209.327 260.69C206.694 260.69 204.56 262.824 204.56 265.457C204.56 268.09 206.694 270.224 209.327 270.224Z" fill="#035916"/>
<path opacity="0.43" d="M224.555 270.224C227.187 270.224 229.321 268.09 229.321 265.457C229.321 262.824 227.187 260.69 224.555 260.69C221.922 260.69 219.788 262.824 219.788 265.457C219.788 268.09 221.922 270.224 224.555 270.224Z" fill="#035916"/>
<path opacity="0.43" d="M239.782 270.224C242.415 270.224 244.549 268.09 244.549 265.457C244.549 262.824 242.415 260.69 239.782 260.69C237.149 260.69 235.015 262.824 235.015 265.457C235.015 268.09 237.149 270.224 239.782 270.224Z" fill="#035916"/>
<path opacity="0.43" d="M255.01 270.224C257.642 270.224 259.777 268.09 259.777 265.457C259.777 262.824 257.642 260.69 255.01 260.69C252.377 260.69 250.243 262.824 250.243 265.457C250.243 268.09 252.377 270.224 255.01 270.224Z" fill="#035916"/>
<path opacity="0.43" d="M270.238 270.224C272.87 270.224 275.004 268.09 275.004 265.457C275.004 262.824 272.87 260.69 270.238 260.69C267.605 260.69 265.471 262.824 265.471 265.457C265.471 268.09 267.605 270.224 270.238 270.224Z" fill="#035916"/>
</g>
<g opacity="0.15">
<path opacity="0.15" d="M275.004 280.204H205.862V281.219H275.004V280.204Z" fill="#292A2E"/>
</g>
<g opacity="0.15">
<path opacity="0.15" d="M275.004 290.356H205.862V291.371H275.004V290.356Z" fill="#292A2E"/>
</g>
<g opacity="0.15">
<path opacity="0.15" d="M242.593 300.508H205.862V301.523H242.593V300.508Z" fill="#292A2E"/>
</g>
<g opacity="0.15">
<path opacity="0.15" d="M275.512 328.199H251.898V320.679H275.512V328.199ZM252.913 327.184H274.497V321.694H252.913V327.184Z" fill="#292A2E"/>
</g>
<path d="M242.44 321.186H219.841V327.691H242.44V321.186Z" fill="#0CBC8B"/>
<path opacity="0.48" d="M179.813 321.688C180.085 321.687 180.354 321.625 180.598 321.505C180.842 321.386 181.056 321.212 181.223 320.997C181.39 320.783 181.507 320.533 181.563 320.267C181.62 320.001 181.615 319.726 181.55 319.462C179.727 311.882 179.588 297.612 181.161 291.479L182.902 284.692L182.899 284.66C182.929 284.427 182.907 284.191 182.833 283.969C182.759 283.746 182.636 283.544 182.472 283.376C175.889 276.62 176.757 269.682 176.757 269.682H173.919C174.103 271.317 173.996 272.972 173.603 274.569C172.892 277.373 171.002 280.486 166.209 281.233C164.685 281.461 163.137 281.461 161.613 281.233C156.82 280.486 154.929 277.373 154.219 274.569C153.825 272.972 153.718 271.317 153.903 269.682H151.067C151.067 269.682 151.933 276.62 145.35 283.375C145.186 283.543 145.063 283.746 144.989 283.968C144.915 284.191 144.892 284.427 144.923 284.659L144.899 284.691L146.64 291.478C148.213 297.611 148.074 311.883 146.252 319.461C146.186 319.725 146.181 320.001 146.238 320.267C146.294 320.533 146.411 320.782 146.578 320.997C146.745 321.211 146.959 321.385 147.203 321.505C147.447 321.624 147.716 321.687 147.988 321.688L179.813 321.688Z" fill="white"/>
<path d="M179.813 321.688C180.085 321.687 180.354 321.625 180.598 321.505C180.842 321.386 181.056 321.212 181.223 320.997C181.39 320.783 181.507 320.533 181.563 320.267C181.62 320.001 181.615 319.726 181.55 319.462C179.727 311.882 179.588 297.612 181.161 291.479L182.902 284.692L182.899 284.66C182.929 284.427 182.907 284.191 182.833 283.969C182.759 283.746 182.636 283.544 182.472 283.376C175.889 276.62 176.757 269.682 176.757 269.682H173.919C174.103 271.317 173.996 272.972 173.603 274.569C172.892 277.373 171.002 280.486 166.209 281.233C164.685 281.461 163.137 281.461 161.613 281.233C156.82 280.486 154.929 277.373 154.219 274.569C153.825 272.972 153.718 271.317 153.903 269.682H151.067C151.067 269.682 151.933 276.62 145.35 283.375C145.186 283.543 145.063 283.746 144.989 283.968C144.915 284.191 144.892 284.427 144.923 284.659L144.899 284.691L146.64 291.478C148.213 297.611 148.074 311.883 146.252 319.461C146.186 319.725 146.181 320.001 146.238 320.267C146.294 320.533 146.411 320.782 146.578 320.997C146.745 321.211 146.959 321.385 147.203 321.505C147.447 321.624 147.716 321.687 147.988 321.688L179.813 321.688Z" fill="#035916"/>
<path opacity="0.48" d="M179.813 321.688C180.085 321.687 180.354 321.625 180.598 321.505C180.842 321.386 181.056 321.212 181.223 320.997C181.39 320.783 181.507 320.533 181.563 320.267C181.62 320.001 181.615 319.726 181.55 319.462C179.727 311.882 179.588 297.612 181.161 291.479L182.902 284.692L182.899 284.66C182.929 284.427 182.907 284.191 182.833 283.969C182.759 283.746 182.636 283.544 182.472 283.376C175.889 276.62 176.757 269.682 176.757 269.682H173.919C174.103 271.317 173.996 272.972 173.603 274.569C172.892 277.373 171.002 280.486 166.209 281.233C164.685 281.461 163.137 281.461 161.613 281.233C156.82 280.486 154.929 277.373 154.219 274.569C153.825 272.972 153.718 271.317 153.903 269.682H151.067C151.067 269.682 151.933 276.62 145.35 283.375C145.186 283.543 145.063 283.746 144.989 283.968C144.915 284.191 144.892 284.427 144.923 284.659L144.899 284.691L146.64 291.478C148.213 297.611 148.074 311.883 146.252 319.461C146.186 319.725 146.181 320.001 146.238 320.267C146.294 320.533 146.411 320.782 146.578 320.997C146.745 321.211 146.959 321.385 147.203 321.505C147.447 321.624 147.716 321.687 147.988 321.688L179.813 321.688Z" fill="white"/>
<path d="M344.174 421.317C344.174 421.317 341.882 433.194 330.759 433.858C319.636 434.522 322.048 443.382 322.048 443.382H364.553V422.145L344.174 421.317Z" fill="#035916"/>
<path d="M357.284 204.612C357.284 204.612 357.151 201.04 357.179 209.141C357.284 239.358 357.809 273.871 359.09 294.068C361.149 326.536 366.43 428.898 366.43 428.898L338.499 428.664L311.428 203.384L357.284 204.612Z" fill="#262626"/>
<path d="M325.743 240.242C325.743 240.242 324.585 262.17 324.373 267.317C323.876 279.223 323.704 291.55 323.704 305.525L319.301 268.887C319.301 268.887 322.521 257.407 325.743 240.242Z" fill="#0A0A0A"/>
<path d="M294.45 421.317C294.45 421.317 292.158 433.194 281.035 433.858C269.912 434.522 272.325 443.382 272.325 443.382H314.83V422.145L294.45 421.317Z" fill="#035916"/>
<path d="M280.926 206.958C280.926 206.958 278.452 310.23 278.815 315.277L289.202 428.114L316.671 428.622L313.994 311.195C313.994 311.195 315.882 278.803 323.708 248.724C327.713 233.287 330.123 217.479 330.9 201.55L280.926 206.958Z" fill="#262626"/>
<path d="M357.588 204.609L357.679 204.615C357.679 204.615 357.613 202.852 357.588 204.609Z" fill="#333333"/>
<path d="M276.994 149.637C277.57 156.405 280.372 198.624 280.926 206.96H357.255C357.687 199.442 359.623 166.568 361.258 151.867C362.819 137.838 365.881 130.814 363.636 126.667C359.968 119.889 349.946 115.972 343.111 115.047C338.938 114.482 332.662 114.077 332.662 114.077C332.662 114.077 332.13 124.826 319.456 125.425C302.205 126.237 303.357 114.076 303.272 114.076C300.477 114.076 284.204 115.39 280.606 118.16C274.315 123.004 275.772 135.294 276.994 149.637Z" fill="#035916"/>
<path d="M275.94 141.156C275.875 141.156 275.812 141.131 275.765 141.086C275.718 141.042 275.69 140.981 275.686 140.916L275.07 130.17C275.066 130.103 275.089 130.037 275.134 129.987C275.179 129.937 275.241 129.906 275.309 129.902C275.376 129.899 275.441 129.922 275.491 129.967C275.541 130.011 275.572 130.074 275.577 130.141L276.192 140.887C276.196 140.954 276.173 141.02 276.129 141.07C276.084 141.121 276.021 141.151 275.954 141.155L275.94 141.156Z" fill="#0C0C0C"/>
<path d="M373.755 206.516C376 206.515 378.212 205.973 380.202 204.934C382.192 203.895 383.902 202.391 385.185 200.549C386.469 198.707 387.289 196.582 387.575 194.356C387.861 192.129 387.605 189.866 386.828 187.76C386.04 185.621 367.553 136.668 364.034 127.597L337.975 138.155C339.954 143.255 347.123 162.586 352.883 178.159L343.314 177.119L340.302 204.826L372.247 206.434C372.748 206.488 373.251 206.516 373.755 206.516Z" fill="#035916"/>
<path d="M294.178 113.148C294.264 113.137 296.605 121.947 314.877 120.576C327.526 119.629 330.612 111.018 330.9 111.018C329.536 110.729 327.322 110.428 326.716 110.105C324.724 109.035 323.273 107.732 322.543 104.936C321.972 102.749 321.68 94.3319 321.68 90.1088L302.215 94.4827C302.487 99.2464 304.386 110.291 297.73 112.245C296.623 112.568 295.431 112.866 294.178 113.148Z" fill="#E98862"/>
<path d="M302.889 103.848C310.563 104.453 320.42 101.214 322.293 90.9763L323.982 81.7381C325.854 71.5006 321.995 62.2178 312.355 60.4549C302.716 58.6921 293.993 65.6734 292.121 75.911L291.373 80.0007C290.655 83.9294 289.199 102.768 302.889 103.848Z" fill="#E98862"/>
<path d="M295.775 94.4487C297.152 87.5277 297.784 82.9106 297.71 78.0393C295.77 74.6385 296.28 70.73 296.721 69.0428C295.385 69.8916 293.815 70.2945 292.235 70.1935C292.235 70.1935 295.443 57.317 306.349 53.8522C308.354 53.0715 313.474 52.0858 320.272 53.0182C326.054 53.8111 340.307 58.1347 342.343 74.1806V74.1898C342.41 74.7217 343.779 89.5063 346.506 96.5998C350.173 106.136 355.322 109.099 355.192 120.101C355.024 134.253 329.006 136.137 313.316 135.078C297.625 134.019 288.863 128.86 288.749 118.661C288.624 107.233 293.018 108.295 295.775 94.4487Z" fill="#0A0A0A"/>
<path d="M358.883 152.149L357.008 206.951L357.515 206.969L359.391 152.167L358.883 152.149Z" fill="#0C0C0C"/>
<path d="M193.304 89.5078L201.507 99.1956L200.999 97.5323C200.846 96.9921 200.903 96.4139 201.16 95.9146C201.417 95.4152 201.853 95.0319 202.382 94.842C202.658 94.7535 202.949 94.7222 203.238 94.75C203.527 94.7779 203.807 94.8642 204.061 95.0038C204.315 95.1434 204.538 95.3333 204.717 95.562C204.895 95.7907 205.025 96.0533 205.098 96.3338L208.848 110.454C209.321 112.236 209.08 114.133 208.174 115.74C207.269 117.347 205.771 118.536 204.001 119.054C201.946 119.656 199.758 119.63 197.718 118.98C195.678 118.33 193.878 117.086 192.55 115.407L186.546 107.788C186.226 107.398 186.051 106.91 186.051 106.406C186.05 105.902 186.223 105.413 186.541 105.022C186.835 104.675 187.233 104.431 187.676 104.326C188.119 104.221 188.584 104.261 189.003 104.439C189.009 104.415 189.02 104.392 189.036 104.372C189.051 104.353 189.07 104.336 189.092 104.324C189.114 104.312 189.138 104.304 189.163 104.302C189.188 104.299 189.213 104.302 189.237 104.31L188.125 102.904C187.784 102.491 187.604 101.97 187.618 101.435C187.632 100.901 187.839 100.389 188.2 99.9951C188.57 99.6164 189.068 99.3888 189.596 99.3567C190.125 99.3247 190.646 99.4903 191.059 99.8215C191.062 99.7989 191.069 99.777 191.08 99.757L190.623 99.1804C190.325 98.7855 190.162 98.3051 190.158 97.8104C190.154 97.3157 190.31 96.8328 190.602 96.4333C190.958 96.0032 191.469 95.7298 192.025 95.6717C192.58 95.6136 193.137 95.7755 193.575 96.1227L193.604 96.0937L190.158 92.0234C189.981 91.8147 189.848 91.5721 189.768 91.3105C189.688 91.0489 189.663 90.7738 189.693 90.5019C189.722 90.23 189.807 89.967 189.942 89.7291C190.077 89.4912 190.259 89.2832 190.477 89.118C190.91 88.8128 191.443 88.6833 191.968 88.7557C192.492 88.828 192.97 89.0968 193.304 89.5078Z" fill="#E98862"/>
<path opacity="0.2" d="M193.49 96.3491C193.499 96.3709 193.511 96.391 193.526 96.4084L196.92 100.323C196.956 100.356 197.004 100.374 197.053 100.374C197.102 100.375 197.149 100.357 197.187 100.325C197.224 100.293 197.248 100.248 197.255 100.2C197.262 100.151 197.251 100.102 197.224 100.061L193.83 96.146C193.799 96.1105 193.757 96.087 193.711 96.0797C193.664 96.0723 193.616 96.0815 193.576 96.1058C193.536 96.13 193.505 96.1676 193.49 96.2121C193.474 96.2566 193.475 96.3051 193.492 96.3491H193.49Z" fill="#0C0C0C"/>
<path opacity="0.2" d="M191.064 99.9129C191.072 99.9342 191.084 99.954 191.099 99.9713L193.742 103.068C193.779 103.099 193.826 103.116 193.874 103.116C193.922 103.116 193.969 103.099 194.005 103.067C194.042 103.036 194.066 102.993 194.074 102.945C194.081 102.898 194.072 102.849 194.047 102.808L191.403 99.7109C191.371 99.6775 191.329 99.6559 191.283 99.6496C191.237 99.6434 191.191 99.6529 191.151 99.6765C191.112 99.7001 191.082 99.7365 191.065 99.7796C191.049 99.8228 191.048 99.8701 191.063 99.914L191.064 99.9129Z" fill="#0C0C0C"/>
<path opacity="0.2" d="M189.001 104.572C189.009 104.595 189.022 104.616 189.039 104.634L190.321 106.068C190.337 106.092 190.358 106.113 190.383 106.129C190.408 106.145 190.436 106.155 190.465 106.159C190.494 106.163 190.523 106.16 190.551 106.152C190.579 106.143 190.605 106.128 190.627 106.109C190.649 106.089 190.666 106.065 190.678 106.038C190.69 106.011 190.695 105.982 190.695 105.953C190.694 105.924 190.687 105.895 190.674 105.868C190.661 105.842 190.643 105.819 190.62 105.8L189.337 104.366C189.305 104.334 189.263 104.314 189.218 104.308C189.173 104.303 189.127 104.313 189.088 104.337C189.05 104.36 189.02 104.396 189.004 104.439C188.988 104.482 188.987 104.528 189.001 104.572Z" fill="#0C0C0C"/>
<path d="M233.793 180.727C231.211 180.727 228.673 180.059 226.425 178.789C224.177 177.518 222.296 175.688 220.964 173.476L187.774 118.337L213.432 102.892L238.664 144.809L280.606 118.161L298.375 141.985L241.898 178.344C239.481 179.899 236.667 180.727 233.793 180.727Z" fill="#035916"/>
<path d="M277.419 155.718C277.362 155.718 277.307 155.698 277.263 155.663C277.218 155.628 277.186 155.579 277.173 155.524C277.16 155.469 277.165 155.41 277.189 155.359C277.212 155.307 277.252 155.265 277.303 155.239L284.55 151.499C284.61 151.468 284.68 151.462 284.744 151.483C284.808 151.503 284.862 151.548 284.892 151.608C284.923 151.668 284.929 151.738 284.909 151.802C284.888 151.866 284.843 151.92 284.783 151.95L277.536 155.69C277.5 155.708 277.46 155.718 277.419 155.718Z" fill="#0C0C0C"/>
<path d="M162.03 442.776H144.056L136.781 369.118H154.755L162.03 442.776Z" fill="#035916"/>
<path opacity="0.21" d="M162.03 442.776H144.056L136.781 369.118H154.755L162.03 442.776Z" fill="#0A0A0A"/>
<path d="M144.056 442.776H74.0998L81.3746 369.118H136.781L144.056 442.776Z" fill="#035916"/>
<path d="M109.079 399.257C107.03 399.257 105.002 398.853 103.109 398.07C101.217 397.286 99.4974 396.137 98.049 394.688C96.6005 393.24 95.4516 391.52 94.6677 389.628C93.8839 387.735 93.4805 385.707 93.4805 383.658V376.987C93.4778 376.873 93.4978 376.759 93.5395 376.653C93.5811 376.547 93.6436 376.451 93.7232 376.369C93.8028 376.287 93.8978 376.223 94.0028 376.178C94.1078 376.134 94.2206 376.111 94.3346 376.111C94.4485 376.111 94.5613 376.134 94.6663 376.178C94.7713 376.223 94.8664 376.287 94.9459 376.369C95.0255 376.451 95.088 376.547 95.1296 376.653C95.1713 376.759 95.1914 376.873 95.1886 376.987V383.657C95.1886 387.341 96.652 390.874 99.2569 393.479C101.862 396.084 105.395 397.547 109.079 397.547C112.763 397.547 116.296 396.084 118.901 393.479C121.506 390.874 122.969 387.341 122.969 383.657V376.987C122.969 376.76 123.059 376.543 123.219 376.382C123.379 376.222 123.597 376.132 123.823 376.132C124.05 376.132 124.267 376.222 124.427 376.382C124.587 376.543 124.677 376.76 124.677 376.987V383.657C124.673 387.793 123.028 391.758 120.104 394.683C117.18 397.607 113.215 399.252 109.079 399.257Z" fill="white"/>
<path opacity="0.08" d="M136.781 369.118L146.704 378.797L154.755 369.118H136.781Z" fill="#0A0A0A"/>
<path opacity="0.08" d="M144.056 442.776L152.084 433.097L162.03 442.776H144.056Z" fill="#0A0A0A"/>
<path d="M381.844 443.774H0.406477C0.353797 443.775 0.301275 443.767 0.252047 443.748C0.202819 443.729 0.157895 443.7 0.119956 443.664C0.0820171 443.627 0.0518419 443.583 0.031232 443.535C0.0106221 443.486 0 443.434 0 443.381C0 443.329 0.0106221 443.277 0.031232 443.228C0.0518419 443.18 0.0820171 443.136 0.119956 443.099C0.157895 443.062 0.202819 443.034 0.252047 443.015C0.301275 442.996 0.353797 442.987 0.406477 442.989H381.844C381.897 442.987 381.949 442.996 381.998 443.015C382.048 443.034 382.093 443.062 382.131 443.099C382.168 443.136 382.199 443.18 382.219 443.228C382.24 443.277 382.25 443.329 382.25 443.381C382.25 443.434 382.24 443.486 382.219 443.535C382.199 443.583 382.168 443.627 382.131 443.664C382.093 443.7 382.048 443.729 381.998 443.748C381.949 443.767 381.897 443.775 381.844 443.774Z" fill="#3F3F3F"/>
</svg>
